<?xml version="1.0" encoding="utf-8"?>
<!-- Generator: Adobe Illustrator 27.5.0, SVG Export Plug-In . SVG Version: 6.00 Build 0)  -->
<svg version="1.1" id="OBJECT" xmlns="http://www.w3.org/2000/svg" xmlns:xlink="http://www.w3.org/1999/xlink" x="0px" y="0px"
	 viewBox="0 0 8192 4400.8" style="enable-background:new 0 0 8192 4400.8;" xml:space="preserve">
<style type="text/css">
	.st0{fill:#FFFFFF;}
	.st1{fill:#FFF6E7;}
	.st2{fill:#4F9EE8;}
	.st3{fill:#3B66B2;}
</style>
<rect y="79.7" class="st0" width="8192" height="4321.1"/>
<rect class="st1" width="8192" height="4400.8"/>
<path class="st2" d="M4384.1-577.7c-36-152.7-70.5-242.2-70.8-243.1l-1.8-4.5L-926,32.7L-1.8,5673.6l4470.1-606
	c0,0-468.1-173.8-559.9-345.6c334.6-329.3,161.8-561.8-179.3-757.4C3443.6,3375.7,3240,2908.5,3890,1987.2
	c116.1-166.1,216.2-341.3,297.7-520.7c74.1-163.1,134.3-333.3,179.2-505.9c75.5-290.7,109.1-593.4,99.9-899.8
	c-3.6-120.4-13.9-241.6-30.6-360.3C4422.7-394.5,4405.2-488.1,4384.1-577.7L4384.1-577.7z"/>
<path class="st3" d="M4351.9-224l-316.5,100.8c0,0,678.3,995.9-272.5,2293s389.9,2335.6,389.9,2335.6l269.1-85.7
	c0,0-1413.2-1015.4-364.6-2343.6C5106,747.8,4351.9-224,4351.9-224z"/>
</svg>
