<?xml version="1.0" encoding="UTF-8"?>
<svg xmlns="http://www.w3.org/2000/svg" xmlns:xlink="http://www.w3.org/1999/xlink" viewBox="0 0 7521.64 6429.94">
  <defs>
    <style>
      .cls-1 {
        fill: #006897;
      }

      .cls-2 {
        fill: url(#linear-gradient-2);
      }

      .cls-3 {
        stroke-dasharray: 0 0 1.99 5.98;
      }

      .cls-3, .cls-4, .cls-5, .cls-6 {
        fill: none;
      }

      .cls-3, .cls-4, .cls-6 {
        stroke: #1d1d1b;
        stroke-linecap: round;
        stroke-linejoin: round;
        stroke-width: 2px;
      }

      .cls-7 {
        fill: #261e65;
      }

      .cls-8 {
        fill: #cca189;
      }

      .cls-9 {
        fill: #65c4c4;
      }

      .cls-10 {
        fill: #fff;
      }

      .cls-11 {
        fill: #5f81a0;
      }

      .cls-12 {
        fill: #f4acb8;
      }

      .cls-13 {
        fill: #79c6dd;
      }

      .cls-14 {
        fill: url(#linear-gradient-18);
      }

      .cls-15 {
        fill: #1e5256;
      }

      .cls-16 {
        fill: #308a8c;
      }

      .cls-17 {
        fill: url(#linear-gradient-20);
      }

      .cls-18, .cls-19 {
        fill: #79d9ed;
      }

      .cls-18, .cls-20 {
        opacity: .2;
      }

      .cls-21 {
        isolation: isolate;
      }

      .cls-4 {
        stroke-dasharray: 0 0 2 5.99;
      }

      .cls-22 {
        fill: #3a9da5;
      }

      .cls-23 {
        fill: #284a72;
      }

      .cls-24 {
        fill: #ac6a5c;
      }

      .cls-25 {
        fill: #496da5;
      }

      .cls-26 {
        fill: url(#linear-gradient-8);
      }

      .cls-26, .cls-27, .cls-28, .cls-29, .cls-30, .cls-31, .cls-20, .cls-32, .cls-33, .cls-34, .cls-35, .cls-36, .cls-37, .cls-38 {
        mix-blend-mode: screen;
      }

      .cls-26, .cls-30, .cls-34, .cls-37, .cls-38 {
        opacity: .5;
      }

      .cls-27 {
        fill: url(#linear-gradient-5);
      }

      .cls-28 {
        fill: url(#linear-gradient-15);
      }

      .cls-39 {
        fill: #81a0c1;
      }

      .cls-40 {
        fill: #e8d0c4;
      }

      .cls-41 {
        fill: #eab7c4;
      }

      .cls-42 {
        fill: #485f66;
      }

      .cls-43 {
        fill: #d68395;
      }

      .cls-44 {
        fill: url(#linear-gradient-21);
      }

      .cls-30 {
        fill: url(#linear-gradient-10);
      }

      .cls-31 {
        fill: url(#linear-gradient-14);
      }

      .cls-20 {
        fill: #ac756b;
      }

      .cls-45 {
        fill: #003a68;
      }

      .cls-46 {
        fill: #e6c0a8;
      }

      .cls-47 {
        clip-path: url(#clippath);
      }

      .cls-32 {
        fill: url(#linear-gradient-9);
      }

      .cls-48 {
        fill: #d63e54;
      }

      .cls-33 {
        fill: url(#linear-gradient-16);
      }

      .cls-49 {
        fill: #f45b6a;
      }

      .cls-34 {
        fill: url(#linear-gradient-11);
      }

      .cls-50 {
        fill: #4fb5b7;
      }

      .cls-51 {
        fill: #f492a1;
      }

      .cls-52 {
        fill: #8fbdcc;
      }

      .cls-35 {
        fill: url(#linear-gradient-17);
      }

      .cls-53 {
        fill: url(#linear-gradient-3);
      }

      .cls-54 {
        fill: #4f6fb7;
      }

      .cls-55 {
        fill: url(#linear-gradient);
      }

      .cls-36 {
        fill: url(#linear-gradient-7);
      }

      .cls-37 {
        fill: url(#linear-gradient-6);
      }

      .cls-56 {
        fill: #f7e8dc;
      }

      .cls-57 {
        fill: url(#linear-gradient-19);
      }

      .cls-58 {
        fill: url(#linear-gradient-4);
      }

      .cls-59 {
        fill: #f9eff4;
      }

      .cls-38 {
        fill: url(#linear-gradient-12);
      }

      .cls-60 {
        fill: url(#linear-gradient-13);
      }
    </style>
    <linearGradient id="linear-gradient" x1="3150.72" y1="544.83" x2="1701.19" y2="4294.29" gradientUnits="userSpaceOnUse">
      <stop offset="0" stop-color="#f9eff4"/>
      <stop offset=".04" stop-color="#f8ecf2"/>
      <stop offset=".32" stop-color="#f3dbea"/>
      <stop offset=".62" stop-color="#f0d1e5"/>
      <stop offset="1" stop-color="#f0cee4"/>
    </linearGradient>
    <linearGradient id="linear-gradient-2" x1="2284.63" y1="1934.09" x2="3857.93" y2="1934.09" gradientUnits="userSpaceOnUse">
      <stop offset="0" stop-color="#2f92c2"/>
      <stop offset=".05" stop-color="#2f8abc"/>
      <stop offset=".26" stop-color="#3272ac"/>
      <stop offset=".48" stop-color="#3361a0"/>
      <stop offset=".71" stop-color="#345799"/>
      <stop offset="1" stop-color="#355497"/>
    </linearGradient>
    <linearGradient id="linear-gradient-3" x1="3071.28" y1="3363.35" x2="3071.28" y2="2732" gradientUnits="userSpaceOnUse">
      <stop offset="0" stop-color="#8fbdcc"/>
      <stop offset="1" stop-color="#aacbc8"/>
    </linearGradient>
    <linearGradient id="linear-gradient-4" x1="6343.07" y1="3399.14" x2="2039.57" y2="6594.55" xlink:href="#linear-gradient-2"/>
    <linearGradient id="linear-gradient-5" x1="4982.07" y1="3823.7" x2="6720.16" y2="3823.7" xlink:href="#linear-gradient-2"/>
    <linearGradient id="linear-gradient-6" x1="6394.25" y1="4297.04" x2="6720.16" y2="4297.04" xlink:href="#linear-gradient-2"/>
    <linearGradient id="linear-gradient-7" x1="4134.56" y1="4377.23" x2="5668.05" y2="4377.23" xlink:href="#linear-gradient-2"/>
    <linearGradient id="linear-gradient-8" x1="5493.35" y1="4864.45" x2="5668.05" y2="4864.45" xlink:href="#linear-gradient-2"/>
    <linearGradient id="linear-gradient-9" x1="5352.97" y1="3735.16" x2="6856.56" y2="3735.16" xlink:href="#linear-gradient-2"/>
    <linearGradient id="linear-gradient-10" x1="5493.35" y1="5220.42" x2="5668.05" y2="5220.42" xlink:href="#linear-gradient-2"/>
    <linearGradient id="linear-gradient-11" x1="6394.25" y1="4652.6" x2="6720.16" y2="4652.6" xlink:href="#linear-gradient-2"/>
    <linearGradient id="linear-gradient-12" x1="6776.47" y1="4503.82" x2="6856.56" y2="4503.82" xlink:href="#linear-gradient-2"/>
    <linearGradient id="linear-gradient-13" x1="3913.19" y1="3478.02" x2="7327.51" y2="3478.02" gradientUnits="userSpaceOnUse">
      <stop offset="0" stop-color="#f4acb8"/>
      <stop offset="1" stop-color="#e6c0a8"/>
    </linearGradient>
    <linearGradient id="linear-gradient-14" x1="4224.98" y1="3944.93" x2="5630.99" y2="3944.93" xlink:href="#linear-gradient-2"/>
    <linearGradient id="linear-gradient-15" x1="5259.07" y1="3276.54" x2="6895.72" y2="3276.54" xlink:href="#linear-gradient-2"/>
    <linearGradient id="linear-gradient-16" x1="5444.18" y1="4648.3" x2="5634.92" y2="4648.3" xlink:href="#linear-gradient-2"/>
    <linearGradient id="linear-gradient-17" x1="6514.68" y1="3968.27" x2="6895.72" y2="3968.27" xlink:href="#linear-gradient-2"/>
    <linearGradient id="linear-gradient-18" x1="4648.9" y1="3087.33" x2="6719.88" y2="3087.33" xlink:href="#linear-gradient-3"/>
    <linearGradient id="linear-gradient-19" x1="4354.53" y1="959.89" x2="5390.34" y2="959.89" xlink:href="#linear-gradient"/>
    <linearGradient id="linear-gradient-20" x1="385.08" y1="847.48" x2="1696.96" y2="847.48" gradientUnits="userSpaceOnUse">
      <stop offset="0" stop-color="#7f9bc2"/>
      <stop offset=".29" stop-color="#7e9ec4"/>
      <stop offset=".52" stop-color="#7da8cb"/>
      <stop offset=".74" stop-color="#7cb9d7"/>
      <stop offset=".95" stop-color="#79d1e7"/>
      <stop offset="1" stop-color="#79d9ed"/>
    </linearGradient>
    <linearGradient id="linear-gradient-21" x1="2501.38" y1="4245.03" x2="323.86" y2="6602.94" xlink:href="#linear-gradient-2"/>
    <clipPath id="clippath">
      <path class="cls-5" d="m2972.45,386.47l-54.49-31.66c-5.82-4.88-9.66-7.77-11.64-9.04l54.49,31.66c1.98,1.27,5.82,4.17,11.64,9.04Z"/>
    </clipPath>
  </defs>
  <g class="cls-21">
    <g id="BACKGROUND">
      <rect class="cls-10" x="5439.26" y="4654.2" width="500" height="500"/>
    </g>
    <g id="OBJECTS">
      <g>
        <path class="cls-18" d="m7487.6,4473.99c-91.1-273.3-628.22-241.62-1505.65-241.62-306.62,0-592.79,28.59-835.57,77.99-539.24-263.27-1326.23-429.26-2202.88-429.26C1317.85,3881.1,0,4451.67,0,5155.52s1317.85,1274.42,2943.5,1274.42c734.67,0,1406.43-116.55,1922.14-309.25,1998.5-228.63,2842-986.56,2621.95-1646.69Z"/>
        <g>
          <g>
            <polygon class="cls-59" points="5336.63 2607.84 5134.21 3485.16 4302.84 3485.16 4100.41 2607.84 5336.63 2607.84"/>
            <ellipse class="cls-59" cx="4718.52" cy="2607.84" rx="618.11" ry="267.18"/>
            <ellipse class="cls-59" cx="4718.52" cy="3485.16" rx="415.68" ry="179.68"/>
            <ellipse class="cls-12" cx="4718.52" cy="2607.84" rx="515.91" ry="223.01"/>
            <path class="cls-24" d="m4718.52,2472.56c-250.19,0-458.73,76.99-505.87,179.14,47.15,102.15,255.69,179.14,505.87,179.14s458.73-76.99,505.87-179.14c-47.15-102.15-255.69-179.14-505.87-179.14Z"/>
          </g>
          <g>
            <path class="cls-22" d="m4864.96,1739.04c-72.52,27.56-148.98,99.58-193.64,182.5-45.37,82.63-59.47,172.39-31.07,227.53,20.22,40.55,5.53,114.38,9.21,182.74,2.87,68.36,23.03,128.65,93.95,137,71.21,8.42,105.8-39.29,136.37-90.46,29.86-51.54,57-107.75,95.69-119.98,55.12-18.05,85.64-67.53,105.9-127.87,19.92-60.34,31.76-132.78,38.84-196.53,6.8-63.42,29.7-85.29,62.66-102.76,33.94-17.16,78.03-31.2,145.94-72.41,66.04-39.45,99.24-88.95,115.36-140.24,15.96-50.51,12.17-103.13-2.23-134.91-14.4-31.78-50.82-68.44-108.63-82.87-56.9-14.11-137.17-3.11-219.3,65.32-83.64,71.02-113.11,132.82-138.65,176.65-12.59,22.37-25.27,39.87-41.27,55.81-16.25,15.76-38.32,27.75-69.12,40.48Z"/>
            <path class="cls-7" d="m4732.23,2681.42c-5.77.43-10.82-5.15-11.05-12.12-2.83-111.51,9.62-222.1,32.78-330.55,23.25-108.38,59.39-214.19,108.42-313.84,24.83-49.63,52.06-98.23,83.82-143.88,14.99-23.43,32.57-45.02,49.09-67.37,17.9-21.24,35.06-43.19,54.3-63.26,75.56-81.5,162.41-152.8,258.02-209.41,6.03-3.42,13.29-2.13,16.2,2.86,2.91,5,.48,11.76-5.44,15.11-93.99,55.65-179.19,125.64-253.35,205.61-18.89,19.69-35.72,41.25-53.3,62.09-16.21,21.95-33.48,43.13-48.19,66.15-31.19,44.81-57.93,92.58-82.36,141.37-48.2,97.97-83.82,202.15-106.73,309-22.84,106.77-35.1,216.35-32.32,325.34.22,6.76-4.12,12.42-9.88,12.89Z"/>
            <path class="cls-7" d="m5120.96,1693.73c-1.82-1.97-2.76-4.77-2.36-7.95,2.75-25.1,7.5-49.16,12.47-74.15l8.02-37.76c3-12.49,6.45-24.68,9.91-37.2,1.79-6.41,8.74-11.54,15.4-11.37,6.66.17,10.51,5.57,8.71,11.98-14.53,49.15-24.36,99.39-31.77,147.42-.79,6.36-6.43,11.68-12.71,11.98-3.14.15-5.84-.99-7.66-2.95Z"/>
            <path class="cls-7" d="m4971.52,1862.6c-2.18-1.56-3.62-4.09-3.81-7.25-.38-6.3,4.43-12.68,10.65-14.13,42.63-10.56,86.2-17.14,127.7-22.05,6.16-.55,11.04,3.93,11.02,9.89-.07,5.92-4.49,11.56-10.5,12.24-20.63,2.56-41.92,5.41-63.23,9.07-20.82,4.06-42.04,8.6-63.64,13.66-3.11.73-6.02.13-8.19-1.43Z"/>
            <path class="cls-7" d="m4849.57,2076.93c-2.45-1.08-4.42-3.28-5.33-6.36-7.3-25-13.05-50.18-19.09-76.36-5.5-25.92-9.87-52.21-14.21-79.38-1.09-6.68,3.55-14.01,9.75-16.5,6.26-2.47,11.94.94,12.77,7.49,7.09,53.54,17.98,105.33,31.53,154.87,1.53,6.02-1.67,13.09-7.23,15.9-2.82,1.38-5.75,1.41-8.2.33Z"/>
            <path class="cls-7" d="m4769.75,2316.32c-2.61-.61-4.95-2.41-6.4-5.26-3-5.72-.96-13.42,4.24-17.14,47.99-35.14,98.27-65.87,147.93-92.55,5.41-2.8,11.63-.52,13.94,4.99,2.45,5.57.19,12.3-5.09,15.15-50.17,26.52-98.43,57.94-146.61,92.97-2.52,1.88-5.4,2.45-8.01,1.84Z"/>
            <path class="cls-7" d="m5232.16,1607.7c-1.56-2.18-2.15-5.07-1.38-8.18,1.56-6.19,7.91-11.01,14.23-10.41,28.51,3.18,56.21,6.92,83.06,11.16,6.04.95,9.45,6.63,7.75,12.62-1.7,5.99-7.89,10.01-13.93,9.05-26.61-3.9-55.11-8.79-82.51-10.36-3.12-.24-5.66-1.7-7.22-3.87Z"/>
            <path class="cls-7" d="m4823.91,2139.47c-2.5-.96-4.58-3.04-5.61-6.06-2.08-6.03.76-13.47,6.29-16.51,29.75-15.47,58.42-30.13,88.44-42.68,5.71-2.43,11.68.44,13.4,6.31,1.73,5.87-1.51,12.48-7.17,14.94-28.6,13.24-58.73,27.22-87.14,43.27-2.77,1.52-5.7,1.7-8.21.74Z"/>
            <path class="cls-7" d="m5026.55,1792.52c-2.05-1.73-3.31-4.39-3.29-7.58-.19-27.83,1.48-55.34,3.99-83.43.55-6.54,6.3-12.61,12.74-13.46,6.44-.85,11.12,3.85,10.56,10.38-2.23,28.33-4.47,55.33-4.75,82.75-.04,6.39-5.03,12.31-11.26,13.35-3.11.52-5.94-.28-7.99-2.01Z"/>
          </g>
          <g>
            <path class="cls-19" d="m4309.3,1921.36c-14.93,63.42-10.03,139.86,10.22,206.93,20.41,66.93,56.41,125.02,108.51,146.95,38.15,16.02,62.29,74.94,92.54,126.02,30.47,50.97,67.46,94.63,137.36,79.12,69.82-15.48,86.58-74.19,90.15-137.94,3.83-63.74-5.71-131.79,17.97-167.48,33.91-51.08,23.3-125.31-11.96-198.05-35.07-72.81-94.67-143.27-152.53-188.69-57.27-44.87-70.88-74.86-80.59-118.02-5.44-21.37-8.54-46.16-18.21-76.58-9.04-30.54-23.22-67.13-50.39-111.61-53.44-86.94-128-123.64-186.98-126.25-60.52-2.65-104.62,25.11-126.05,52.33-21.7,27.53-38.53,76.83-40.58,126.42-2,51.15,9.33,102.44,57.9,158.15,49.92,58.12,91.99,89.94,121.66,117.88,14.26,14.53,25.26,28.32,31.22,45.37,5.49,17.41,6.3,37.85-.26,65.47Z"/>
            <path class="cls-7" d="m4695.99,2680.69c-5.71.86-11.15-3.58-12.21-10.01-35.74-206.8-87.87-411.57-157.74-609.52-35.49-98.76-75.46-196.01-123.63-288.97-23.82-46.6-49.86-92.01-78.43-135.67-28.04-44.03-59.72-85.54-93.73-124.74-4.32-4.8-4.35-11.84-.07-15.72,4.28-3.89,11.36-3.04,15.8,1.89,34.79,40.1,67.06,82.43,95.54,127.14,29.02,44.36,55.41,90.37,79.49,137.5,48.73,94.03,89,192.08,124.75,291.54,70.37,199.42,122.66,404.82,158.68,613.16,1.07,6.52-2.74,12.56-8.46,13.4Z"/>
            <path class="cls-7" d="m4370.48,1691.8c-2.32,1.35-5.23,1.7-8.19.76-23.08-7.26-45.51-14.31-68.26-20.34-23-5.8-45.35-11.36-67.82-15.83-5.84-1.07-9.83-6.56-8.99-12.36.84-5.8,6.19-9.72,12.03-8.64,22.93,3.96,45.44,9.4,68.32,15.3,23.16,5.71,45.88,12.56,68.79,19.94,5.91,1.88,9.84,8.4,8.72,14.45-.56,3.03-2.28,5.37-4.59,6.72Z"/>
            <path class="cls-7" d="m4467.41,1884.55c-2.45,1.08-5.38,1.09-8.19-.2-5.62-2.58-8.65-9.41-6.79-15.31,12.77-40.97,24.51-82.78,34.51-125.51,1.44-6.15,7.33-9.19,13.21-6.7,5.87,2.48,9.49,9.55,8.04,15.7-10.76,42.99-22.23,84.72-35.41,125.86-.93,2.95-2.91,5.09-5.37,6.17Z"/>
            <path class="cls-7" d="m4552.29,2104.95c-2.54.86-5.46.62-8.15-.91-43.65-25-87.55-48.66-131.64-70.67-5.44-2.69-8.05-9.4-5.85-15.04,2.2-5.64,8.36-8.08,13.8-5.38,44.38,21.83,88.46,45.45,132.23,70.39,5.38,3.07,7.84,10.22,5.49,15.93-1.18,2.86-3.34,4.82-5.88,5.68Z"/>
            <path class="cls-7" d="m4621.65,2336.6c-2.59.68-5.48.24-8.04-1.47-5.14-3.43-7.02-10.69-4.28-16.23,25.5-51.9,50.48-104.96,73.73-159.11,2.5-5.78,8.83-7.75,14.15-4.36,5.32,3.39,7.62,10.85,5.11,16.64-23.64,54.22-48.46,107.26-74.4,159.27-1.39,2.78-3.68,4.58-6.27,5.27Z"/>
            <path class="cls-7" d="m4300.14,1576.91c-2.17,1.58-5.02,2.21-8.02,1.55-6.01-1.32-10.37-7.34-9.82-13.54,2.12-27.3,2.9-54.93,3.07-83.54-.16-6.3,4.83-10.66,11.26-9.62,6.41,1.06,11.33,7.43,11.31,13.84-.26,28.68-1.05,56.29-3.87,84.11-.28,3.1-1.76,5.62-3.93,7.2Z"/>
            <path class="cls-7" d="m4572.46,2166.42c-2.55.81-5.47.51-8.13-1.07-5.33-3.17-7.65-10.29-5.19-15.95,12.96-29.57,25.35-59.43,37.36-89.72,2.32-5.82,8.57-8.02,13.99-4.87,5.41,3.14,7.92,10.44,5.6,16.26-11.92,30.26-24.9,60.3-37.64,89.8-1.23,2.83-3.43,4.75-5.98,5.55Z"/>
            <path class="cls-7" d="m4431.74,1807.18c-2.41,1.17-5.32,1.3-8.15.11-24.51-10.21-49.51-19.52-73.82-28.55-5.59-2.14-9.15-8.39-7.71-14.25,1.43-5.85,7.23-9.05,13.02-7.05,25.02,8.57,49.26,18.34,74.33,28.24,5.84,2.29,9.22,9.09,7.48,15.11-.84,3-2.75,5.22-5.15,6.4Z"/>
          </g>
        </g>
        <g>
          <g>
            <g>
              <path class="cls-59" d="m3836.77,404.81c96.5-55.71,174.98-10.84,175.3,100.04l9.86,3478.6c.31,110.88-77.66,246.09-174.16,301.8l-1551.35,895.67c-96.5,55.71-174.99,10.84-175.3-100.04l-9.86-3478.6c-.32-110.88,77.66-246.09,174.16-301.8l1551.35-895.67Z"/>
              <path class="cls-55" d="m3865.56,391.15c4.14-1.6,8.24-3.03,12.28-4.24,2.61-.78,5.22-1.55,7.79-2.17,2.4-.58,4.78-1.08,7.14-1.53,3.13-.59,6.22-1.07,9.26-1.42,1.75-.2,3.51-.4,5.23-.52,3.83-.27,7.59-.34,11.27-.22.82.03,1.68-.03,2.49.02,4.43.25,8.73.82,12.91,1.63,1.05.2,2.06.47,3.09.71,3.29.75,6.5,1.68,9.62,2.78.98.34,1.97.66,2.93,1.03,3.96,1.56,7.81,3.33,11.47,5.45l-.19-.11.19.11-136.22-79.16c-.32-.18-.64-.37-.96-.55-2.83-1.6-5.76-3.03-8.78-4.29-.56-.23-1.15-.38-1.71-.6-.97-.38-1.97-.7-2.97-1.05-1.52-.53-3-1.15-4.56-1.61-1.63-.47-3.35-.77-5.03-1.16-1.03-.24-2.05-.51-3.1-.71-.57-.11-1.11-.29-1.69-.39-3.44-.6-6.96-1.01-10.56-1.23-.22-.01-.45,0-.67,0-.82-.05-1.67,0-2.5-.02-2.77-.09-5.54-.19-8.4-.07-.93.04-1.91.22-2.85.29-1.74.12-3.5.33-5.26.53-1.64.19-3.24.23-4.91.49-1.42.22-2.9.66-4.34.93-2.36.44-4.74.94-7.14,1.53-1.31.32-2.56.47-3.88.83-1.27.35-2.62.96-3.91,1.35-4.04,1.21-8.14,2.64-12.28,4.24-1.47.57-2.88.89-4.36,1.5-1.42.59-2.88,1.33-4.31,1.97-1.36.61-2.72,1.22-4.09,1.87-5.29,2.5-10.62,5.19-16.02,8.31l-1551.35,895.67c-5.62,3.24-11.16,6.81-16.65,10.58-1.78,1.22-3.53,2.57-5.3,3.85-3.69,2.67-7.36,5.39-10.98,8.27-2,1.6-3.97,3.27-5.95,4.93-3.34,2.8-6.64,5.68-9.9,8.65-1.97,1.8-3.93,3.61-5.87,5.47-1.21,1.16-2.47,2.23-3.67,3.42-1.29,1.27-2.49,2.71-3.76,4.01-3.94,4.01-7.81,8.12-11.6,12.36-1.21,1.35-2.51,2.57-3.7,3.95-1.02,1.17-1.97,2.44-2.98,3.63-2.3,2.71-4.55,5.48-6.8,8.28-1.45,1.8-2.98,3.52-4.4,5.36-1.2,1.55-2.31,3.17-3.49,4.73-1.64,2.18-3.25,4.36-4.85,6.58-1.09,1.5-2.23,2.95-3.3,4.47-1.86,2.65-3.61,5.39-5.42,8.09-1.11,1.66-2.24,3.29-3.32,4.96-.45.69-.93,1.36-1.38,2.06-3.11,4.86-6.12,9.8-9.04,14.79-.21.36-.39.72-.6,1.07-.6,1.04-1.16,2.11-1.76,3.15-1.98,3.49-3.97,6.97-5.86,10.51-.9,1.69-1.71,3.41-2.59,5.1-.9,1.76-1.8,3.51-2.68,5.28-.75,1.5-1.55,2.99-2.28,4.49-2.01,4.16-3.89,8.36-5.75,12.57-.3.69-.64,1.36-.94,2.05-.08.19-.18.38-.26.57-2.26,5.21-4.4,10.44-6.42,15.7-.37.97-.69,1.95-1.05,2.93-.72,1.93-1.39,3.86-2.08,5.79-.93,2.6-1.93,5.19-2.79,7.79-.69,2.06-1.24,4.13-1.89,6.19-.75,2.4-1.5,4.8-2.2,7.2-.43,1.48-.95,2.96-1.36,4.44-.74,2.68-1.3,5.35-1.97,8.04-.75,2.98-1.53,5.95-2.19,8.93-.23,1.03-.54,2.07-.76,3.11-.46,2.16-.69,4.28-1.11,6.43-.89,4.68-1.73,9.34-2.4,13.98-.18,1.28-.5,2.57-.66,3.85-.38,2.91-.57,5.79-.85,8.68-.2,2.07-.45,4.15-.61,6.22-.48,6.5-.79,12.95-.77,19.31l9.86,3478.6c.16,55.12,19.63,93.93,51.03,112.18l136.22,79.16c-31.4-18.25-50.88-57.06-51.03-112.18l-9.86-3478.6c-.02-6.36.29-12.81.77-19.31.15-2.06.41-4.14.61-6.22.41-4.16.91-8.33,1.51-12.52.66-4.64,1.51-9.3,2.4-13.98.61-3.18,1.16-6.35,1.87-9.54.66-2.97,1.44-5.95,2.19-8.93,1.05-4.16,2.11-8.32,3.32-12.48.7-2.4,1.44-4.8,2.2-7.2,1.47-4.68,3.03-9.34,4.69-14.01.69-1.92,1.34-3.84,2.06-5.75,2.42-6.44,4.97-12.85,7.74-19.22.3-.69.63-1.36.94-2.05,2.53-5.73,5.23-11.42,8.04-17.07.87-1.75,1.76-3.5,2.66-5.24,2.71-5.27,5.53-10.49,8.47-15.65.59-1.04,1.15-2.1,1.75-3.13,3.51-6.07,7.2-12.03,11-17.91,1.1-1.69,2.25-3.34,3.36-5.02,2.83-4.23,5.72-8.41,8.69-12.52,1.6-2.21,3.21-4.4,4.85-6.58,2.58-3.42,5.22-6.77,7.89-10.09,2.24-2.79,4.49-5.57,6.8-8.28,2.19-2.58,4.44-5.07,6.69-7.58,3.8-4.24,7.67-8.36,11.61-12.37,2.45-2.5,4.9-5.01,7.41-7.41,1.95-1.87,3.92-3.69,5.9-5.5,3.25-2.96,6.54-5.82,9.86-8.62,1.99-1.67,3.97-3.35,5.99-4.96,3.6-2.87,7.26-5.58,10.94-8.24,1.78-1.29,3.54-2.64,5.34-3.87,5.48-3.76,11.02-7.33,16.64-10.57l1551.35-895.67c5.41-3.12,10.74-5.82,16.02-8.31,1.37-.65,2.73-1.26,4.09-1.87,2.93-1.3,5.79-2.36,8.68-3.47Z"/>
            </g>
            <polygon class="cls-7" points="3956.92 725.57 3965.34 3695.84 2175.34 4729.3 2166.92 1759.03 3956.92 725.57"/>
            <path class="cls-56" d="m3191.51,4269.03c66.76-38.54,121.11-7.57,121.32,69.28.22,76.71-53.78,170.23-120.54,208.78-66.88,38.61-121.23,7.64-121.45-69.07-.22-76.85,53.78-170.38,120.66-208.99Z"/>
            <path class="cls-10" d="m3191.61,4311.42c46.41-26.8,84.19-5.26,84.34,48.16.15,53.33-37.39,118.34-83.8,145.14-46.5,26.85-84.28,5.31-84.43-48.02-.15-53.43,37.39-118.45,83.88-145.29Z"/>
            <path class="cls-7" d="m3282.62,926.53c11.23-6.48,20.51-1.19,20.55,11.85.04,12.9-9.19,28.88-20.42,35.36l-549.12,317.03c-11.35,6.56-20.64,1.26-20.67-11.64-.04-13.04,9.19-29.02,20.54-35.58l549.12-317.03Z"/>
          </g>
          <g class="cls-29">
            <polygon class="cls-2" points="3855.6 1069.96 3857.93 1891.23 2286.96 2798.23 2284.63 1976.96 3855.6 1069.96"/>
          </g>
          <polygon class="cls-53" points="3855.6 2084.99 3857.93 2906.25 2286.96 3813.25 2284.63 2991.99 3855.6 2084.99"/>
          <polygon class="cls-10" points="3743.14 2247.55 3745.13 2393.84 2399.43 3170.79 2397.43 3024.49 3743.14 2247.55"/>
          <polygon class="cls-10" points="3743.14 2487.5 3745.13 2633.79 2399.43 3410.74 2397.43 3264.44 3743.14 2487.5"/>
          <polygon class="cls-10" points="3743.14 2727.45 3745.13 2873.74 2399.43 3650.69 2397.43 3504.39 3743.14 2727.45"/>
          <polygon class="cls-10" points="3855.6 3148.33 3857.93 3468.81 2286.96 4375.81 2284.63 4055.33 3855.6 3148.33"/>
          <g>
            <path class="cls-49" d="m3259.22,1653.92c24.72-14.27,44.81-2.83,44.89,25.58l.82,288.43c.08,28.41-19.88,62.98-44.6,77.25l-387.29,223.6c-24.72,14.27-44.81,2.83-44.89-25.58l-.82-288.43c-.08-28.41,19.88-62.98,44.6-77.25l387.3-223.6Z"/>
            <path class="cls-10" d="m3019.83,1890.37c2.51-1.45,5.09-2.28,7.57-2.29l125.66,13.46c12.54-.03,12.59,20.51.1,34.82l-125.17,158.38c-2.47,2.85-5.04,4.99-7.55,6.44-8.91,5.15-17.05,1.59-17.08-9.71l-.49-171.74c-.03-11.3,8.05-24.22,16.97-29.36Z"/>
          </g>
        </g>
        <g>
          <g>
            <g>
              <g class="cls-21">
                <polygon class="cls-23" points="3866.05 4415.12 6000.83 3174.52 6000.2 3396.92 3865.42 4637.52 3866.05 4415.12"/>
                <polygon class="cls-23" points="3865.42 4637.52 6000.2 3396.92 7306.09 4150.88 5171.31 5391.48 3865.42 4637.52"/>
                <polygon class="cls-25" points="5171.31 5391.48 7306.09 4150.88 7305.71 4284.96 5170.93 5525.56 5171.31 5391.48"/>
                <polygon class="cls-23" points="5172.32 5034.99 5171.94 5169.08 3866.05 4415.12 3865.42 4637.52 5171.31 5391.48 5170.93 5525.56 3748.35 4704.23 3749.74 4213.67 5172.32 5034.99"/>
                <polygon class="cls-25" points="5172.32 5034.99 7307.1 3794.4 7306.72 3928.48 5171.94 5169.08 5172.32 5034.99"/>
                <polygon class="cls-58" points="3749.74 4213.67 5884.52 2973.07 7307.1 3794.4 5172.32 5034.99 3749.74 4213.67"/>
              </g>
              <polygon class="cls-59" points="3866.05 4415.12 3865.42 4598.87 5171.31 5352.83 5171.31 5169.08 3866.05 4415.12"/>
              <polygon class="cls-59" points="5171.31 5352.83 7257 4140.76 7257 3957.37 5171.31 5169.08 5171.31 5352.83"/>
              <polygon class="cls-27" points="6394.25 4324.89 4982.07 3497.52 5283.2 3322.52 6720.16 4135.49 6394.25 4324.89"/>
              <polygon class="cls-37" points="6394.25 4324.89 6394.25 4458.59 6720.16 4269.25 6720.16 4135.49 6394.25 4324.89"/>
              <polygon class="cls-36" points="4279.13 3906.02 5668.05 4746.91 5493.35 4848.43 4134.56 3990.04 4279.13 3906.02"/>
              <polygon class="cls-26" points="5493.35 4848.43 5493.35 4981.98 5668.05 4880.49 5668.05 4746.91 5493.35 4848.43"/>
            </g>
            <polygon class="cls-32" points="5352.97 3281.97 6776.47 4102.77 6776.47 4236.54 6856.56 4190.01 6856.56 4056.22 5435.89 3233.78 5352.97 3281.97"/>
            <polygon class="cls-30" points="5493.35 5204.15 5493.35 5338.19 5668.05 5236.67 5668.05 5102.66 5493.35 5204.15"/>
            <polygon class="cls-34" points="6394.25 4679.9 6394.25 4814.64 6720.16 4625.24 6720.16 4490.56 6394.25 4679.9"/>
            <polygon class="cls-38" points="6776.47 4461.65 6776.47 4592.52 6856.56 4545.98 6856.56 4415.12 6776.47 4461.65"/>
          </g>
          <g>
            <g class="cls-21">
              <polygon class="cls-43" points="4017.78 3910.2 6152.57 2669.6 6152 2869.6 4017.22 4110.2 4017.78 3910.2"/>
              <polygon class="cls-43" points="4017.22 4110.2 6152 2869.6 7326.61 3547.76 5191.82 4788.36 4017.22 4110.2"/>
              <polygon class="cls-41" points="5191.82 4788.36 7326.61 3547.76 7326.26 3668.43 5191.48 4909.03 5191.82 4788.36"/>
              <polygon class="cls-43" points="5192.73 4467.69 5192.39 4588.36 4017.78 3910.2 4017.22 4110.2 5191.82 4788.36 5191.48 4909.03 3911.94 4170.29 3913.19 3728.95 5192.73 4467.69"/>
              <polygon class="cls-41" points="5192.73 4467.69 7327.51 3227.09 7327.17 3347.76 5192.39 4588.36 5192.73 4467.69"/>
              <polygon class="cls-60" points="3913.19 3728.95 6047.98 2488.35 7327.51 3227.09 5192.73 4467.69 3913.19 3728.95"/>
            </g>
            <polygon class="cls-59" points="4017.78 3910.2 4017.22 4071.54 5191.82 4749.7 7244.76 3556.67 7244.76 3389.9 5192.39 4588.36 4017.78 3910.2"/>
            <polygon class="cls-31" points="4224.98 3547.76 5438.23 4325.02 5444.18 4441.33 5630.99 4333.48 5630.99 4213 4395.74 3448.52 4224.98 3547.76"/>
            <polygon class="cls-28" points="5259.07 2946.81 6514.68 3699.45 6514.68 3816.22 6895.72 3593.72 6895.72 3478.02 5620.35 2736.85 5259.07 2946.81"/>
            <polygon class="cls-33" points="5444.18 4642.29 5444.18 4762.18 5634.92 4651.33 5630.99 4534.43 5444.18 4642.29"/>
            <polygon class="cls-35" points="6514.68 4018.98 6514.68 4140.07 6895.72 3918.63 6895.72 3796.47 6514.68 4018.98"/>
          </g>
          <g>
            <g class="cls-21">
              <polygon class="cls-22" points="4731.54 3246.73 5791.65 2630.66 5791.2 2788.64 4731.09 3404.71 4731.54 3246.73"/>
              <polygon class="cls-22" points="4731.09 3404.71 5791.2 2788.64 6719.16 3324.4 5659.05 3940.47 4731.09 3404.71"/>
              <polygon class="cls-9" points="5659.05 3940.47 6719.16 3324.4 6718.89 3419.71 5658.78 4035.78 5659.05 3940.47"/>
              <polygon class="cls-22" points="5659.77 3687.17 5659.5 3782.49 4731.54 3246.73 4731.09 3404.71 5659.05 3940.47 5658.78 4035.78 4647.92 3452.15 4648.9 3103.55 5659.77 3687.17"/>
              <polygon class="cls-9" points="5659.77 3687.17 6719.88 3071.11 6719.61 3166.42 5659.5 3782.49 5659.77 3687.17"/>
              <polygon class="cls-14" points="4648.9 3103.55 5709.01 2487.48 6719.88 3071.11 5659.77 3687.17 4648.9 3103.55"/>
            </g>
            <polygon class="cls-59" points="4731.09 3366.32 5659.05 3902.08 6650.07 3326.17 6650.07 3206.83 5659.5 3782.49 4731.54 3246.73 4731.09 3366.32"/>
            <polygon class="cls-22" points="5403.01 2665.31 5976.88 2642.14 5709.01 2487.48 5403.01 2665.31"/>
            <path class="cls-10" d="m5872.69,3005.31c104.66,60.43,105.15,158.39,1.17,218.82-103.98,60.43-273.05,60.43-377.71,0-104.66-60.43-105.27-158.39-1.29-218.82,103.98-60.43,273.17-60.43,377.83,0Z"/>
          </g>
        </g>
        <g>
          <polygon class="cls-57" points="4354.53 1233.82 5390.34 1131.1 5095 685.95 4354.53 1233.82"/>
          <polygon class="cls-59" points="4354.53 1233.82 5086.44 403.46 5206.29 707.36 4354.53 1233.82"/>
          <polygon class="cls-59" points="4354.53 1233.82 5604.35 1015.53 5236.25 741.6 4354.53 1233.82"/>
        </g>
        <g>
          <path class="cls-7" d="m5475.51,664.02c-4.13,0-8.29-1.32-11.8-4.03-8.46-6.52-10.02-18.66-3.51-27.1,0,0,4.3-5.57,12.51-15.49,6.81-8.21,18.99-9.38,27.22-2.56,8.23,6.8,9.36,18.99,2.57,27.21-7.57,9.14-11.57,14.32-11.7,14.47-3.79,4.93-9.51,7.51-15.29,7.51Z"/>
          <path class="cls-7" d="m6138.61,2533.62c-7.06,0-13.83-3.86-17.25-10.58-6.12-12.03-11.67-24.53-16.48-37.15-3.81-9.98,1.17-21.15,11.14-24.96,10-3.81,21.14,1.18,24.95,11.15,4.36,11.37,9.36,22.64,14.85,33.47,4.83,9.51,1.04,21.15-8.47,25.98-2.81,1.42-5.79,2.1-8.74,2.1Zm-40.62-148.14c-10.02,0-18.5-7.73-19.25-17.88-.83-11.03-1.25-22.16-1.25-33.33l.04-7.08c.19-10.57,8.8-19.01,19.33-19.01h.32c10.68.18,19.18,8.98,19.01,19.65l-.04,6.28c0,10.37.38,20.52,1.13,30.6.79,10.64-7.17,19.92-17.82,20.71-.49.04-.98.06-1.47.06Zm15.42-153.1c-1.7,0-3.42-.23-5.13-.7-10.29-2.82-16.35-13.46-13.53-23.74,3.51-12.8,7.59-25.67,12.12-38.27,3.62-10.05,14.65-15.23,24.74-11.65,10.04,3.61,15.25,14.68,11.64,24.73-4.21,11.66-7.98,23.57-11.21,35.4-2.36,8.59-10.15,14.23-18.63,14.23Zm62.97-140.55c-3.57,0-7.19-.99-10.42-3.06-8.99-5.77-11.59-17.72-5.83-26.71,7.13-11.12,14.82-22.19,22.82-32.89,6.38-8.53,18.5-10.31,27.05-3.9,8.55,6.4,10.31,18.51,3.91,27.06-7.46,9.97-14.61,20.26-21.23,30.6-3.7,5.76-9.93,8.89-16.29,8.89Zm100.58-116.76c-5.34,0-10.65-2.2-14.46-6.51-7.08-7.98-6.34-20.21,1.64-27.28,9.83-8.72,20.06-17.21,30.69-25.46,8.42-6.57,20.57-5.01,27.12,3.4,6.55,8.43,5.02,20.57-3.42,27.12-9.95,7.74-19.53,15.7-28.76,23.88-3.68,3.25-8.25,4.86-12.82,4.86Zm127.31-87c-6.98,0-13.72-3.78-17.16-10.4-4.93-9.47-1.26-21.14,8.21-26.06,11.57-6.04,23.48-11.83,35.71-17.36,9.72-4.4,21.18-.08,25.57,9.65s.08,21.18-9.65,25.57c-11.55,5.23-22.82,10.71-33.78,16.41-2.85,1.49-5.91,2.19-8.91,2.19Zm143.63-56.21c-8.46,0-16.21-5.61-18.59-14.15-2.87-10.29,3.13-20.94,13.42-23.81,12.51-3.48,25.27-6.73,38.32-9.72,10.34-2.35,20.76,4.1,23.16,14.52,2.4,10.4-4.11,20.77-14.51,23.16-12.44,2.86-24.63,5.95-36.58,9.29-1.74.48-3.49.72-5.21.72Zm149.97-37.38c-8.23,0-15.84-5.28-18.44-13.54-3.19-10.18,2.45-21.03,12.65-24.23,12.04-3.78,23.95-7.82,35.77-12.12,10.06-3.66,21.12,1.53,24.76,11.57,3.66,10.03-1.53,21.12-11.55,24.76-12.34,4.48-24.82,8.71-37.39,12.66-1.93.6-3.89.9-5.79.9Zm142.75-58.91c-7,0-13.76-3.81-17.19-10.46-4.89-9.48-1.17-21.15,8.3-26.05,11.21-5.79,22.27-11.81,33.18-18.04,9.25-5.29,21.08-2.08,26.37,7.18,5.3,9.27,2.08,21.07-7.19,26.38-11.36,6.5-22.91,12.79-34.61,18.84-2.83,1.46-5.87,2.15-8.85,2.15Zm130.67-82.18c-5.85,0-11.65-2.64-15.44-7.67-6.44-8.51-4.76-20.64,3.78-27.07,10.1-7.64,19.99-15.44,29.67-23.44,8.27-6.8,20.42-5.61,27.2,2.59,6.81,8.23,5.64,20.41-2.59,27.22-10.1,8.34-20.44,16.51-30.99,24.48-3.47,2.63-7.57,3.91-11.63,3.91Zm114.53-103.6c-4.68,0-9.38-1.69-13.1-5.11-7.85-7.24-8.34-19.46-1.11-27.31,8.57-9.31,16.85-18.75,24.84-28.35,6.8-8.18,19.01-9.36,27.22-2.49,8.21,6.82,9.32,19.02,2.49,27.22-8.4,10.09-17.1,20.05-26.12,29.82-3.81,4.13-9,6.23-14.21,6.23Zm92.33-123.69c-3.32,0-6.7-.86-9.78-2.67-9.21-5.42-12.27-17.26-6.87-26.46,6.4-10.84,12.4-21.81,18.01-32.85,4.83-9.5,16.51-13.32,25.99-8.46,9.51,4.83,13.31,16.47,8.48,25.99-5.98,11.74-12.36,23.39-19.14,34.93-3.6,6.12-10.06,9.52-16.68,9.52Zm60.32-141.82c-1.64,0-3.3-.22-4.96-.65-10.32-2.74-16.48-13.32-13.74-23.64,3.19-12.04,5.91-24.22,8.08-36.19,1.91-10.49,11.83-17.52,22.48-15.57,10.49,1.91,17.46,11.96,15.57,22.46-2.36,12.99-5.3,26.17-8.76,39.21-2.3,8.65-10.12,14.38-18.67,14.38Zm13.66-153.14c-9.85,0-18.27-7.5-19.21-17.52-1.17-12.22-2.93-24.45-5.27-36.33-2.06-10.47,4.77-20.63,15.25-22.69,10.4-2.06,20.63,4.77,22.69,15.25,2.57,13.13,4.53,26.64,5.79,40.15,1.02,10.63-6.8,20.05-17.42,21.05-.6.06-1.23.09-1.83.09Zm-654.46-45.15c-9.32,0-17.54-6.75-19.06-16.25-1.7-10.53,5.45-20.46,16-22.16,11.57-1.87,23.31-4.64,34.92-8.25,10.17-3.22,21.01,2.51,24.2,12.7,3.17,10.19-2.53,21.03-12.72,24.2-13.33,4.15-26.86,7.35-40.24,9.51-1.04.17-2.08.25-3.1.25Zm-112.4-15.25c-3.59,0-7.21-.99-10.46-3.08-13.29-8.57-24.37-19.59-32.9-32.77-5.81-8.96-3.27-20.92,5.7-26.73,8.94-5.83,20.91-3.27,26.72,5.7,5.55,8.55,12.74,15.71,21.42,21.29,8.96,5.79,11.55,17.74,5.78,26.72-3.7,5.74-9.93,8.86-16.27,8.86Zm251.89-47.65c-5.78,0-11.5-2.58-15.31-7.5-6.53-8.45-4.98-20.58,3.47-27.11,9.57-7.41,18.93-15.45,27.82-23.9,7.76-7.36,19.99-7.07,27.33.69,7.36,7.73,7.04,19.97-.68,27.32-9.85,9.35-20.21,18.26-30.84,26.47-3.51,2.72-7.68,4.04-11.8,4.04Zm470.74-39.06c-6.93,0-13.63-3.73-17.1-10.29-5.62-10.63-11.93-21.31-18.74-31.76-5.83-8.94-3.3-20.91,5.64-26.74,8.91-5.83,20.91-3.31,26.74,5.64,7.44,11.42,14.35,23.12,20.52,34.78,5,9.43,1.4,21.13-8.04,26.12-2.89,1.53-5.98,2.24-9.02,2.24Zm-760.42-52.51c-1.62,0-3.25-.2-4.89-.62-10.33-2.69-16.52-13.24-13.84-23.57,3.4-13.05,8-26.29,13.68-39.33,4.27-9.78,15.69-14.28,25.44-9.99,9.8,4.26,14.27,15.65,10,25.43-4.89,11.2-8.83,22.52-11.72,33.63-2.27,8.69-10.1,14.46-18.69,14.46Zm390.32-24.56c-3.27,0-6.59-.83-9.63-2.58-9.25-5.33-12.44-17.15-7.1-26.4,6.08-10.57,11.74-21.58,16.84-32.75,4.44-9.71,15.87-14.01,25.61-9.56,9.72,4.42,13.99,15.89,9.57,25.6-5.61,12.27-11.83,24.39-18.54,35.99-3.57,6.21-10.08,9.68-16.76,9.68Zm275.81-44.55c-4.76,0-9.53-1.75-13.27-5.28-8.87-8.38-18.19-16.62-28.01-24.73-8.23-6.8-9.4-18.98-2.59-27.21,6.78-8.24,18.93-9.42,27.2-2.6,10.36,8.56,20.44,17.45,29.94,26.43,7.76,7.33,8.12,19.56.77,27.32-3.79,4.03-8.91,6.06-14.04,6.06Zm-588.08-62.4c-4.95,0-9.87-1.88-13.65-5.64-7.55-7.53-7.57-19.77-.04-27.33,9.61-9.64,19.87-18.81,30.48-27.23,8.38-6.65,20.53-5.26,27.16,3.12,6.64,8.36,5.25,20.52-3.11,27.15-9.46,7.5-18.59,15.67-27.16,24.25-3.77,3.78-8.72,5.68-13.68,5.68Zm463.83-29.04c-3.26,0-6.57-.82-9.61-2.57-11.14-6.39-22.14-12.28-33.03-17.67-9.57-4.73-13.5-16.33-8.76-25.88,4.74-9.56,16.29-13.5,25.9-8.75,11.57,5.73,23.29,11.98,35.14,18.78,9.25,5.31,12.46,17.12,7.13,26.38-3.57,6.23-10.08,9.71-16.78,9.71Zm-101.64-9.36c-.85,0-1.72-.06-2.59-.17-10.57-1.42-18.01-11.15-16.59-21.72,1.62-12.1,2.64-24.39,3.04-36.56.32-10.66,9.49-19.28,19.93-18.69,10.66.34,19.04,9.27,18.69,19.94-.42,13.45-1.55,27.06-3.34,40.45-1.3,9.71-9.61,16.76-19.14,16.76Zm-231.89-42.09c-8.14,0-15.7-5.17-18.37-13.33-3.32-10.15,2.21-21.06,12.34-24.38,12.93-4.24,26.25-7.73,39.58-10.4,10.55-2.08,20.65,4.7,22.74,15.16,2.1,10.47-4.68,20.65-15.16,22.74-11.83,2.37-23.65,5.47-35.12,9.23-2,.66-4.04.97-6.02.97Zm190.74-6.31c-1.43,0-2.89-.16-4.34-.49-12.06-2.77-24.25-4.97-36.2-6.54-10.59-1.4-18.04-11.1-16.65-21.69,1.38-10.57,10.93-17.96,21.67-16.65,13.17,1.74,26.57,4.15,39.82,7.2,10.42,2.39,16.91,12.76,14.51,23.17-2.06,8.95-10.02,15-18.82,15Zm30.14-104.69c-8.42,0-16.18-5.55-18.59-14.04-3.34-11.72-7.3-23.42-11.78-34.79-3.93-9.93.94-21.16,10.87-25.07,9.91-3.9,21.16.96,25.06,10.88,4.96,12.53,9.34,25.45,13.02,38.39,2.92,10.27-3.04,20.96-13.29,23.89-1.77.5-3.57.75-5.3.75Zm-1311.19-45.28c-4.89,0-9.78-1.84-13.53-5.53-7.62-7.47-7.74-19.7-.26-27.33,8.68-8.86,17.95-18.1,27.75-27.62,7.66-7.42,19.93-7.25,27.33.4,7.46,7.65,7.27,19.89-.38,27.33-9.57,9.3-18.61,18.31-27.1,26.96-3.77,3.86-8.79,5.79-13.8,5.79Zm1242.11-92.04c-5.89,0-11.72-2.68-15.51-7.77-7.25-9.71-15.1-19.42-23.37-28.87-7.02-8.03-6.21-20.24,1.83-27.27,8-7.01,20.21-6.24,27.27,1.83,8.91,10.18,17.4,20.68,25.25,31.19,6.38,8.55,4.62,20.67-3.93,27.05-3.47,2.59-7.53,3.84-11.55,3.84Zm-1128.62-13.1c-5.53,0-11-2.35-14.83-6.91-6.85-8.18-5.78-20.37,2.4-27.23,9.81-8.23,19.91-16.51,30.29-24.79,8.32-6.66,20.52-5.29,27.16,3.03,6.66,8.34,5.3,20.51-3.04,27.17-10.12,8.1-19.99,16.17-29.58,24.21-3.62,3.04-8.02,4.52-12.4,4.52Zm123.59-92.94c-6.25,0-12.38-3.02-16.1-8.62-5.93-8.89-3.51-20.88,5.38-26.8,10.79-7.19,21.8-14.3,33.01-21.27,9.04-5.62,20.97-2.88,26.61,6.2,5.64,9.06,2.87,20.98-6.19,26.62-10.87,6.77-21.53,13.65-32.03,20.63-3.28,2.19-7,3.24-10.68,3.24Zm896.2-3.12c-4.13,0-8.3-1.32-11.83-4.07-9.7-7.53-19.78-14.97-30.33-22.31-8.76-6.11-10.89-18.15-4.79-26.91,6.1-8.76,18.12-10.94,26.91-4.8,11.08,7.74,21.73,15.57,31.92,23.5,8.44,6.55,9.97,18.69,3.42,27.12-3.81,4.9-9.51,7.46-15.29,7.46Zm-762.23-73.96c-7.19,0-14.08-4.01-17.42-10.91-4.64-9.62-.62-21.17,8.99-25.82,11.78-5.69,23.7-11.18,35.78-16.45,9.81-4.27,21.2.23,25.44,9.98,4.27,9.79-.21,21.18-10,25.44-11.59,5.06-23.06,10.34-34.39,15.82-2.72,1.31-5.59,1.93-8.4,1.93Zm631.74-8.5c-2.96,0-5.98-.69-8.81-2.13l-4.08-2.09c-9.93-5.08-19.88-9.87-29.82-14.36-9.72-4.4-14.04-15.84-9.65-25.57,4.4-9.72,15.84-14.06,25.57-9.65,10.48,4.74,20.99,9.8,31.52,15.18l4.11,2.11c9.49,4.88,13.23,16.53,8.36,26.03-3.43,6.67-10.19,10.49-17.21,10.49Zm-487.67-46.89c-8.42,0-16.16-5.56-18.57-14.06-2.91-10.27,3.06-20.96,13.33-23.87,12.65-3.6,25.42-6.88,38.33-9.84,10.4-2.41,20.76,4.11,23.16,14.51,2.4,10.41-4.11,20.77-14.52,23.16-12.27,2.81-24.4,5.94-36.44,9.35-1.76.5-3.53.74-5.28.74Zm343.68-8.35c-1.59,0-3.17-.19-4.76-.59-12.25-3.1-24.44-5.78-36.58-8.06-10.49-1.98-17.4-12.08-15.42-22.57,1.96-10.49,12.1-17.33,22.55-15.42,12.93,2.44,25.91,5.28,38.92,8.59,10.36,2.62,16.63,13.14,14.01,23.48-2.23,8.76-10.1,14.58-18.72,14.58Zm-191.7-17.92c-10.16,0-18.67-7.92-19.27-18.18-.64-10.65,7.49-19.81,18.14-20.44,13.06-.78,26.22-1.18,39.45-1.19l.34,38.65c-12.78,0-25.18.39-37.48,1.11-.4.03-.77.04-1.17.04Z"/>
          <path class="cls-7" d="m6222.81,2641.84c-4.53,0-9.06-1.58-12.72-4.77-5.12-4.48-10.12-9.06-14.93-13.75-7.66-7.44-7.85-19.67-.41-27.33,7.44-7.64,19.67-7.85,27.33-.4,4.36,4.22,8.83,8.34,13.46,12.37,8.04,7.02,8.85,19.23,1.83,27.27-3.81,4.37-9.17,6.6-14.55,6.6Z"/>
        </g>
        <g>
          <path class="cls-17" d="m1574.74,497.77c3.43-1.53,6.79-2.77,10.17-4.07,4.87-1.88,9.69-3.56,14.44-4.98,3.06-.92,6.11-1.82,9.11-2.55,2.83-.69,5.62-1.27,8.39-1.79,3.66-.69,7.29-1.26,10.86-1.67,2.06-.23,4.13-.48,6.16-.62,4.47-.31,8.85-.4,13.15-.26.99.03,2.02-.03,3,.02,5.19.29,10.23.96,15.14,1.9,1.23.24,2.42.56,3.63.84,3.85.88,7.61,1.96,11.26,3.25,1.16.41,2.33.78,3.47,1.22,4.64,1.83,9.16,3.9,13.44,6.38l-272.44-158.32c-.37-.22-.75-.43-1.12-.64-3.32-1.87-6.75-3.55-10.29-5.03-.66-.28-1.37-.45-2.03-.72-1.14-.45-2.31-.82-3.46-1.22-1.78-.63-3.51-1.35-5.33-1.88-1.93-.56-3.95-.92-5.93-1.37-1.21-.28-2.4-.6-3.63-.84-.66-.12-1.28-.33-1.94-.45-4.03-.7-8.16-1.18-12.38-1.45-.27-.02-.55,0-.81,0-.98-.06-2.01,0-3-.02-3.22-.1-6.43-.23-9.75-.08-1.11.05-2.28.26-3.39.34-2.03.14-4.09.38-6.16.62-1.92.22-3.78.28-5.73.57-1.67.26-3.43.78-5.13,1.1-2.77.52-5.56,1.11-8.39,1.79-1.52.37-2.99.55-4.52.97-1.5.41-3.09,1.13-4.6,1.59-4.75,1.42-9.56,3.1-14.44,4.98-1.72.66-3.36,1.04-5.1,1.76-1.67.7-3.39,1.57-5.07,2.32-1.61.72-3.23,1.44-4.85,2.21-6.2,2.93-12.44,6.09-18.79,9.75-9.5,5.48-18.85,11.63-28.01,18.37-.68.5-1.32,1.13-2,1.64l-74.09-43.06c-.37-.22-.74-.43-1.11-.64-3.32-1.87-6.76-3.55-10.29-5.03-.42-.18-.88-.29-1.3-.46-1.08-.43-2.2-.76-3.3-1.16-2.07-.75-4.09-1.57-6.22-2.19-1.24-.36-2.55-.56-3.81-.88-1.44-.36-2.88-.7-4.35-1-1.12-.23-2.2-.57-3.34-.77-2.41-.42-4.93-.6-7.41-.87-1.24-.13-2.45-.34-3.71-.43-.42-.03-.81-.12-1.24-.14-4.41-.28-8.91-.32-13.51-.12-.15,0-.32.04-.47.05-1.23.06-2.51.28-3.76.37-3.64.27-7.27.52-11.01,1.09-.5.08-1.02.24-1.52.32-2.99.49-6.08,1.26-9.13,1.94-2.49.56-4.92.9-7.45,1.59-.43.12-.89.34-1.32.46-7.11,1.99-14.36,4.46-21.75,7.48-.32.13-.62.19-.94.32-3.74,1.55-7.56,3.45-11.37,5.28l-30.71-17.85c-.37-.21-.74-.43-1.12-.64-3.32-1.87-6.76-3.55-10.29-5.03-.65-.28-1.36-.45-2.02-.71-1.14-.45-2.31-.82-3.47-1.22-1.78-.63-3.51-1.35-5.34-1.88-1.93-.56-3.95-.92-5.93-1.37-1.2-.28-2.38-.6-3.6-.83-.66-.13-1.29-.34-1.95-.45-4.02-.7-8.13-1.18-12.33-1.45-.27-.02-.56,0-.83,0-1-.06-2.05,0-3.06-.03-3.19-.1-6.36-.23-9.64-.08-1.13.05-2.31.26-3.45.34-2,.14-4.03.37-6.07.6-1.89.21-3.72.27-5.64.56-1.7.26-3.49.78-5.22,1.11-2.79.52-5.58,1.1-8.42,1.79-1.49.36-2.92.53-4.42.94-1.52.41-3.14,1.14-4.67,1.6-4.68,1.4-9.42,3.03-14.22,4.88-1.71.66-3.34,1.03-5.06,1.74-1.75.73-3.54,1.63-5.31,2.42-1.64.73-3.27,1.46-4.92,2.24-6.21,2.93-12.47,6.1-18.82,9.76-7.9,4.56-15.65,9.73-23.31,15.16-1.98,1.41-3.95,2.84-5.92,4.3-7,5.2-13.91,10.65-20.66,16.5-.6.52-1.22.98-1.82,1.51-5.73,5.03-11.37,10.26-16.89,15.72-1.17,1.15-2.24,2.46-3.4,3.63-3.64,3.68-7.14,7.54-10.67,11.39-2.71,2.95-5.54,5.69-8.19,8.73-1.44,1.66-2.79,3.45-4.22,5.14-2.1,2.48-4.14,5.01-6.19,7.55-2,2.48-4.1,4.85-6.06,7.38-3.18,4.1-6.21,8.35-9.27,12.57-1,1.38-2.03,2.7-3.01,4.09-.43.61-.9,1.19-1.33,1.81-4.08,5.81-8.04,11.72-11.88,17.73-1.22,1.91-2.35,3.88-3.55,5.81-1.05,1.7-2.08,3.4-3.12,5.11-1.31,2.16-2.68,4.28-3.95,6.47-3.32,5.7-6.54,11.46-9.63,17.28-.45.85-.86,1.72-1.3,2.57-.66,1.25-1.27,2.52-1.91,3.78-1.89,3.69-3.82,7.36-5.62,11.08-2.82,5.85-5.52,11.74-8.09,17.67-9.24,5.93-18.26,12.59-27.13,19.67-1,.8-2.02,1.55-3.02,2.36-8.37,6.83-16.52,14.21-24.48,21.95-.74.71-1.53,1.31-2.26,2.03-.66.65-1.27,1.4-1.93,2.06-6.68,6.68-13.22,13.6-19.55,20.83-.29.33-.61.62-.89.95-1.17,1.34-2.25,2.79-3.41,4.15-3.72,4.39-7.4,8.82-10.99,13.38-.72.92-1.5,1.78-2.22,2.7-1.26,1.62-2.43,3.33-3.67,4.98-2.43,3.22-4.83,6.45-7.19,9.75-.89,1.24-1.84,2.43-2.71,3.68-1.18,1.69-2.28,3.44-3.45,5.15-1.96,2.87-3.9,5.75-5.8,8.66-.86,1.32-1.78,2.59-2.62,3.92-1.22,1.91-2.35,3.87-3.54,5.8-1.66,2.68-3.31,5.35-4.92,8.06-.7,1.18-1.46,2.33-2.15,3.52-1.35,2.31-2.59,4.67-3.9,7-1.42,2.52-2.85,5.03-4.22,7.58-.49.91-1.03,1.8-1.52,2.72-1.54,2.9-2.97,5.85-4.45,8.78-1.17,2.32-2.38,4.61-3.52,6.94-.28.57-.59,1.14-.87,1.71-1.9,3.94-3.66,7.92-5.45,11.9-.77,1.72-1.6,3.42-2.35,5.14-.1.24-.23.48-.33.72-2.64,6.1-5.15,12.23-7.52,18.39-.02.04-.03.09-.05.13-.42,1.1-.78,2.21-1.19,3.32-1.99,5.29-3.94,10.59-5.71,15.91-.05.15-.09.31-.14.46-1.75,5.26-3.3,10.53-4.83,15.8-.44,1.53-.98,3.05-1.4,4.58-.01.05-.02.1-.04.14-1.81,6.53-3.43,13.05-4.89,19.56-.06.25-.13.49-.19.74-5.3,5.43-10.46,11.08-15.53,16.87-.4.46-.82.87-1.22,1.33-1.13,1.29-2.17,2.69-3.28,4-3.71,4.36-7.36,8.79-10.93,13.32-.78.99-1.62,1.92-2.4,2.92-1.09,1.4-2.1,2.88-3.17,4.3-2.5,3.3-4.96,6.63-7.38,10.01-1,1.39-2.06,2.72-3.04,4.12-.96,1.36-1.84,2.78-2.78,4.16-2.02,2.94-4,5.9-5.96,8.89-1.04,1.58-2.14,3.12-3.16,4.71-.92,1.45-1.78,2.94-2.69,4.4-1.73,2.76-3.42,5.54-5.09,8.34-.94,1.57-1.93,3.1-2.86,4.67-.98,1.68-1.88,3.41-2.84,5.11-1.5,2.65-2.99,5.3-4.44,7.97-.77,1.41-1.59,2.79-2.34,4.21-1.07,2.01-2.04,4.06-3.09,6.09-1.35,2.62-2.7,5.24-3.99,7.89-.57,1.15-1.19,2.28-1.74,3.44-1.14,2.37-2.17,4.77-3.27,7.15-1.22,2.65-2.47,5.29-3.64,7.95-.39.89-.83,1.76-1.21,2.65-1.16,2.66-2.18,5.36-3.29,8.04-1.13,2.75-2.29,5.48-3.37,8.24-.27.7-.58,1.38-.85,2.08-1.04,2.7-1.93,5.41-2.91,8.11-1.13,3.1-2.29,6.2-3.34,9.31-.21.62-.46,1.24-.67,1.86-.77,2.32-1.4,4.64-2.13,6.96-1.2,3.82-2.42,7.64-3.51,11.47-.22.77-.49,1.53-.7,2.3-.49,1.75-.83,3.5-1.29,5.26-1.29,4.88-2.51,9.75-3.59,14.62-.28,1.24-.65,2.48-.91,3.71-.25,1.18-.36,2.33-.6,3.51-1.57,7.74-2.92,15.46-3.96,23.12-.1.76-.29,1.53-.39,2.29-.03.25-.04.5-.07.75-.55,4.39-.9,8.73-1.27,13.07-.19,2.2-.48,4.42-.62,6.61-.42,6.51-.63,12.97-.61,19.35.18,64.59,23.01,110.05,59.8,131.44l272.44,158.32c-36.8-21.38-59.62-66.84-59.8-131.44-.02-6.39.2-12.85.61-19.35.14-2.18.43-4.39.62-6.58.37-4.36.72-8.7,1.27-13.1.13-1.01.33-2.03.47-3.04,1.04-7.67,2.39-15.39,3.97-23.14.49-2.4.97-4.79,1.51-7.19,1.09-4.87,2.31-9.74,3.59-14.62.67-2.53,1.29-5.07,2.01-7.6,1.08-3.81,2.29-7.61,3.49-11.41.93-2.95,1.81-5.91,2.81-8.86,1.05-3.11,2.22-6.21,3.34-9.31,1.24-3.4,2.44-6.8,3.76-10.19,1.07-2.73,2.22-5.45,3.34-8.17,1.49-3.61,2.97-7.21,4.55-10.79,1.16-2.63,2.39-5.24,3.6-7.86,1.65-3.56,3.31-7.12,5.04-10.65,1.3-2.65,2.65-5.27,4-7.9,1.77-3.44,3.56-6.86,5.41-10.26,1.46-2.68,2.95-5.34,4.45-7.99,1.86-3.29,3.77-6.55,5.71-9.8,1.67-2.79,3.36-5.56,5.08-8.31,1.91-3.05,3.85-6.08,5.83-9.08,1.97-3,3.96-5.99,5.99-8.94,1.91-2.78,3.85-5.53,5.82-8.27,2.41-3.37,4.87-6.69,7.36-9.98,1.84-2.43,3.7-4.85,5.58-7.23,3.57-4.53,7.23-8.96,10.94-13.32,1.51-1.77,2.98-3.58,4.5-5.32,5.03-5.74,10.16-11.35,15.41-16.74.04-.04.08-.08.12-.12h0c1.5-6.76,3.2-13.54,5.08-20.32.38-1.36.85-2.72,1.24-4.09,1.58-5.48,3.2-10.95,5.02-16.42,1.74-5.24,3.66-10.46,5.61-15.68.5-1.33.93-2.68,1.44-4.01,2.47-6.43,5.11-12.82,7.88-19.18.78-1.8,1.65-3.58,2.46-5.37,2.02-4.49,4.06-8.97,6.22-13.41,1.14-2.33,2.34-4.63,3.52-6.94,1.95-3.85,3.91-7.69,5.96-11.5,1.38-2.55,2.82-5.08,4.24-7.61,1.98-3.52,3.98-7.03,6.04-10.5,1.6-2.7,3.25-5.37,4.91-8.04,2.03-3.27,4.08-6.52,6.18-9.74,1.9-2.91,3.84-5.79,5.8-8.66,2.03-2.97,4.08-5.91,6.16-8.83,2.35-3.29,4.75-6.52,7.18-9.73,1.95-2.59,3.91-5.17,5.91-7.71,3.56-4.53,7.22-8.95,10.93-13.31,1.46-1.72,2.88-3.48,4.36-5.17,6.33-7.22,12.86-14.15,19.54-20.82,1.39-1.39,2.79-2.72,4.19-4.09,7.96-7.73,16.1-15.11,24.47-21.94,1-.82,2.04-1.57,3.05-2.38,8.86-7.07,17.88-13.73,27.12-19.66,4.21-9.7,8.84-19.28,13.71-28.75.65-1.26,1.26-2.53,1.91-3.78,4.68-8.93,9.68-17.7,14.9-26.34,1.02-1.69,2.05-3.38,3.09-5.06,5.35-8.63,10.93-17.11,16.77-25.36.99-1.4,2.03-2.73,3.04-4.12,4.94-6.82,10.08-13.45,15.33-19.95,2.04-2.53,4.08-5.04,6.16-7.51,4.04-4.79,8.24-9.35,12.44-13.91,3.52-3.83,7.02-7.69,10.64-11.35,6.63-6.71,13.36-13.26,20.3-19.35.6-.52,1.22-.99,1.82-1.51,6.75-5.85,13.66-11.3,20.66-16.5,1.96-1.46,3.94-2.9,5.92-4.3,7.66-5.43,15.41-10.6,23.31-15.16,6.35-3.67,12.61-6.83,18.82-9.76,1.65-.78,3.28-1.51,4.92-2.24,3.5-1.55,6.93-2.83,10.37-4.15,4.8-1.84,9.54-3.48,14.21-4.88,3.05-.91,6.11-1.82,9.1-2.55,2.83-.69,5.63-1.27,8.41-1.79,3.66-.69,7.29-1.27,10.86-1.67,2.03-.23,4.07-.46,6.07-.6,4.45-.31,8.82-.39,13.1-.26,1.01.03,2.06-.03,3.06.03,5.18.3,10.21.96,15.11,1.91.68.13,1.34.32,2.01.46l54.66,31.77c6.12-3.14,12.15-5.85,18.12-8.3,7.39-3.03,14.64-5.5,21.75-7.49,2.97-.83,5.86-1.39,8.78-2.04,2.08-.47,4.18-.95,6.23-1.33l128.45,74.65c17.51-15.79,35.88-29.38,54.89-40.35,6.34-3.66,12.58-6.82,18.78-9.75,1.63-.77,3.24-1.5,4.86-2.22Z"/>
          <path class="cls-13" d="m1142.18,488.34c71.08-41.04,133.76-35.61,170.71,6.26,85.53-43.84,157.29-19.37,183.33,55.49,17.51-15.79,35.88-29.38,54.89-40.35,113.15-65.33,205.26-12.98,205.63,117.18.37,130.02-91.14,288.52-204.29,353.85-32.58,18.81-644.01,371.82-689.3,397.97-113.15,65.33-205.26,12.84-205.63-117.18-.28-100.11,53.77-216.81,130.18-295.16,23.8-107.33,96.65-218.71,184.5-275.1,36.59-84.33,99.04-161.99,169.99-202.96Z"/>
        </g>
        <path class="cls-10" d="m1232.88,833.1c44.18-25.5,80.08-5.05,80.22,45.72.14,50.76-35.52,112.54-79.7,138.05-44.18,25.5-80.08,5.05-80.22-45.72-.14-50.76,35.52-112.54,79.7-138.05Z"/>
        <path class="cls-10" d="m2456.93,2385.71c44.18-25.5,80.08-5.04,80.22,45.72.14,50.76-35.52,112.54-79.7,138.05-44.18,25.5-80.08,5.05-80.22-45.72-.14-50.76,35.52-112.54,79.7-138.05Z"/>
        <g>
          <line class="cls-6" x1="1229.97" y1="941.05" x2="1229.97" y2="942.05"/>
          <line class="cls-4" x1="1229.97" y1="948.04" x2="1229.97" y2="3095.25"/>
          <polyline class="cls-6" points="1229.97 3098.25 1229.97 3099.25 1230.86 3098.8"/>
          <line class="cls-3" x1="1236.21" y1="3096.11" x2="2431.13" y2="2495.45"/>
          <line class="cls-6" x1="2433.8" y1="2494.11" x2="2434.7" y2="2493.66"/>
        </g>
        <g>
          <g>
            <path class="cls-19" d="m3615.25,4485.97c-112.47,26.59-230.93,87.58-328.47,157.6-96.96,70.92-174.84,153.97-192.75,248.59-3.14,17.38-11.62,33.91-23.41,50.81-11.84,16.79-27.01,33.95-44.96,49.82-35.35,32.85-79.55,64.64-121.1,97.24-82.49,65.4-156.72,135.65-122.1,249.37,17.86,57.1,54.8,89.38,103.98,105.08,49.1,15.86,109.82,14.72,172.12,5.67,62.44-8.78,126.28-25.54,183.5-38.21,57.4-12.33,108.01-21.28,146.33-11.17,108.62,27.84,251.96-39,371.73-153.8,30.49-27.95,58.48-59.86,84.96-92.87,27.04-32.43,50.74-67.81,72.58-103.13,10.86-17.71,21.61-35.08,31.12-52.98,9.32-18.07,18.1-36.03,26.32-53.74,16.48-35.39,30.85-69.66,40.96-103.5,10.46-33.11,20.85-60.68,31.73-84.31,10.55-23.87,20.72-44.45,32.4-62.11,23.14-35.45,50.41-60.66,81.33-88.5,31.11-27.65,69.98-55.34,111.45-97.85,21.08-21.05,44.18-45.04,68.37-73.84,23.07-29.33,47.69-63.24,73.79-103.02,25.2-38.75,42.65-77.51,57.41-113.88,7.09-18.3,13.53-36.02,18.18-53.54,4.37-17.62,7.77-34.76,10.27-51.37,10.13-66.47,6.08-124.3-9.87-173.43-30.17-97.85-94.59-156.62-149.17-176.72-54.58-20.1-143.26-17.41-228.26,23.7-41.73,21.05-85.58,50.06-124.26,91.57-9.65,10.4-19,21.58-27.99,33.63-9.24,11.88-18.84,24.16-27.67,37.59-18.17,26.52-33.31,57.66-49.13,91.39-16.42,34.6-29.43,66.71-40.08,96.69-11.83,29.09-21.48,55.92-29.44,81.08-3.83,12.68-7.49,24.77-10.99,36.34-3.78,11.37-7.38,22.22-10.84,32.64-6.82,20.95-13,40.33-19.46,58.25-6.19,18.14-13.58,34.06-22.33,48.47-8.63,14.52-18.44,27.69-30.33,39.57-23.13,24.3-57.5,41.04-105.93,52.89Z"/>
            <path class="cls-7" d="m2404.59,5416.83c-.48-9.64,8.39-17.99,20.53-19.28,97.57-10.23,195.02-31.55,290.28-58.27,95.4-26.8,188.94-60.41,279.88-99.96,90.91-39.63,179.1-85.45,264.06-136.55,42.91-24.89,83.8-53,125.1-80.42,40.14-29.11,80.79-57.55,119.1-89.08,156.21-122.44,293.64-267.73,414.55-425,121-157.52,220.95-330.69,304.79-510.85,5.08-11.3,16.32-17.22,25.1-13.24,8.78,3.98,11.72,16.48,6.57,27.93-84.79,182.21-186,357.58-308.67,517.3-122.56,159.46-262.05,306.89-420.62,431.2-38.9,32-80.16,60.9-120.92,90.43-41.92,27.85-83.46,56.37-127.02,81.66-86.27,51.88-175.81,98.4-268.13,138.64-92.34,40.16-187.33,74.29-284.31,101.54-96.99,27.16-195.61,48.83-296.33,59.41-12.58,1.34-23.59-5.84-23.97-15.46Z"/>
            <path class="cls-7" d="m4026.84,4385.62c-3.72-2.48-6.25-6.8-6.74-12.38-3.76-43.39-8.07-85.93-12.89-127.6-5.63-42.2-12.77-84.21-19.79-125-1.84-10.51,4.79-22.09,14.9-26,10.11-3.92,19.85,1.29,21.68,11.8,7.13,40.86,13.82,82.6,20.04,125.17,3.35,21.44,5.9,42.66,7.85,63.8l6.04,64.44c.97,11.15-6.8,23.32-17.25,27.02-5.23,1.85-10.13,1.24-13.85-1.24Z"/>
            <path class="cls-7" d="m3773.46,4707.23c-3.27-3.04-5.02-7.68-4.49-13.16,1.08-10.95,10.87-21.12,21.49-23.34,37.53-7.15,75.65-14.96,114.33-23.45,38.62-8.55,75.9-19.29,114.73-29.89,11.11-3.11,19.89,3.59,19.5,15.13-.39,11.53-9.81,23.53-20.92,26.63l-57.52,15.65-58.45,13.25c-39.01,8.2-76.12,16.93-115.05,22.8-5.56.89-10.35-.56-13.62-3.6Z"/>
            <path class="cls-7" d="m3438.9,5004.51c-2.63-3.61-3.48-8.5-1.95-13.82,24.78-86.76,43.13-173.51,55.86-258.93,1.57-10.49,11.63-18.87,22.16-19.41,10.48-.59,18,7.51,16.63,18.24-6.4,42.67-14.1,85.8-22.55,130-9.38,43.07-19.94,86.75-31.52,131.2-3.07,10.63-14.77,19.1-25.98,18.79-5.61-.15-10.03-2.47-12.66-6.08Z"/>
            <path class="cls-7" d="m3043.97,5236.31c-1.86-4.06-1.72-9.03.83-13.95,5.1-9.86,17.96-15.63,28.83-13.24,101.39,21.49,207.67,37.13,316.97,44.36,11.72.88,17.63,10.22,13.01,20.97-4.61,10.76-18.01,18.84-29.74,17.95-109.73-7.96-216.58-24.54-318.72-47.64-5.46-1.25-9.33-4.4-11.19-8.46Z"/>
            <path class="cls-7" d="m4163.94,4169.41c-3.93-2.12-6.86-6.21-7.87-11.74-2.02-11.06,4.41-23.7,14.44-28.38,44.31-20.96,90.47-42.42,134.79-66,9.88-5.34,19.9-.68,22.31,10.56,2.61,11.31-3.87,24.71-14.31,29.8-45.68,22.98-90.87,44.87-135.48,65.69-5.02,2.34-9.95,2.19-13.88.07Z"/>
            <path class="cls-7" d="m3337.93,5074.21c-2.44-3.74-3.04-8.7-1.25-13.96,3.58-10.54,15.34-18.3,26.47-17.48,29.23,2.49,57.9,3.22,87.23,3.98,29.15.52,59.4,1.62,88.84.76,11.33-.27,18.13,8.44,15.01,19.6-2.99,11.33-15.17,20.26-26.8,20.15-30.16-.09-59.9-.52-89.21-1.25-29.28-.69-59.14-3.16-88-5.11-5.56-.41-9.84-2.94-12.27-6.68Z"/>
            <path class="cls-7" d="m3879.73,4585.36c-3.46-2.82-5.57-7.37-5.5-12.97.26-48.43.77-94.96-1.46-141.96-.59-10.97,7.3-22.1,17.73-25.02,10.43-2.93,19.45,3.45,20.04,14.41,1.08,23.49,2.73,47.81,2.83,71.36l-.16,71.55c-.12,11.19-9.04,22.55-19.8,25.21-5.39,1.34-10.21.25-13.67-2.57Z"/>
          </g>
          <g>
            <path class="cls-12" d="m3879.74,5385.28c-104.3-48.27-242.5-75.22-372.62-80.92-130.03-5.03-253.57,12.55-326.3,72-53.11,43.66-172.06,41.62-281.38,48.77-109.31,8.1-210.85,26.42-234.72,132.22-23.83,105.44,67.25,171.27,178.45,218.91,110.85,48.56,239.89,76.91,288.26,131.34,69.07,78.15,212.18,106.08,367.75,93.02,155.69-12.33,321.39-67.25,438.68-132.84,29.1-16.33,54.67-28.93,78.04-38.52,23.31-10.38,44.41-17.79,64.54-22.83,20.12-5.1,39.26-7.72,58.5-9.12,19.17-1.92,38.47-2.31,58.98-1.98,20.51.33,42.22,1.37,66.21,2.3,23.85.11,49.95-.05,79.34-1.24,14.7-.6,30.22-1.47,46.68-2.71,16.44-1.39,33.65-4.02,52.01-6.74,36.57-6.08,77.89-12.28,123.26-25.79,89.06-23.37,159.11-60.92,213.01-100.23,52.82-42.35,90.25-85.31,112.99-129.8,45.75-88.76,39.51-168.78,14.21-215.12-25.3-46.34-90.34-96.17-177.51-116.64-43.57-10.02-94.48-16.26-149.28-8.93-56.27,4.44-116.99,21.3-186.58,49.35-35.23,15.88-67.84,28.08-96.47,42.24-28.61,14.25-54.7,26.47-78.31,38.55-23.65,11.93-44.62,24.47-64.49,34.54-19.84,10.14-38.06,19.58-55.43,27.85-34.58,17.15-66.49,26.88-100.83,28.97-34.22,2.52-71.68-5.76-116.98-26.65Z"/>
            <path class="cls-7" d="m2292.18,5452c3.08-8.19,14.68-11.48,26.36-7.5,188.38,63.1,383.96,107.53,580.67,139.35,98.45,15.93,197.56,27.77,296.92,35.92,99.35,8.35,199.02,13.05,298.69,12.93,199.34,1.41,398.59-16.24,594.62-50.81,195.77-36.03,387.85-91.85,571.58-168,11.61-4.33,23.35-2.46,26.87,5.73,3.4,7.88-2.85,19.1-14.63,23.5-185.98,77.09-380.3,133.54-578.15,169.95-198.11,34.95-399.29,52.74-600.39,51.32-100.55.12-201.06-4.61-301.22-13.04-100.18-8.22-200.07-20.15-299.29-36.21-198.41-32.13-394.95-76.7-586-140.68-11.91-4.06-19.16-14.3-16.04-22.47Z"/>
            <path class="cls-7" d="m4252.39,5563.3c-.95-3.94.24-8.41,3.78-12.48,55.23-62.24,105.93-127.89,152.95-192.75,5.95-8.59,18.62-12.95,28.45-9.77,9.83,3.17,13.1,12.65,7.14,21.24-11.63,16.57-23.29,33.76-35.5,50.05l-37.44,48.6c-25.36,32.62-51.55,65.66-79.19,96.7-7.06,8.13-21.07,11.6-31.12,7.71-5.03-1.94-8.12-5.35-9.07-9.3Z"/>
            <path class="cls-7" d="m3848.06,5631.65c-.41-4.03,1.38-8.27,5.44-11.75,8.13-6.89,22.26-8.24,31.65-3.37,32.71,17.51,66.04,34.95,99.98,52.29,33.88,16.82,68.26,32.51,103.36,48.64,10.1,4.61,11.88,14.48,3.84,22.08-8.04,7.6-22.87,10.05-32.97,5.44-35.06-15.82-69.51-32.06-103.5-49.84-33.98-17.64-67.21-34.14-100.06-52.95-4.73-2.67-7.33-6.51-7.74-10.54Z"/>
            <path class="cls-7" d="m3399.66,5647.06c.12-4.05,2.44-8.04,6.92-10.99,72.94-48.29,143.02-98.98,209.77-151.62,8.2-6.42,21.79-6.74,30.45-.81,8.65,5.69,9.13,15.71.95,22.39-33.4,26.1-67.57,52.19-102.52,78.33-34.99,25.03-70.73,50.23-107.22,75.13-8.96,5.91-23.35,5.46-32.03-1.01-4.34-3.23-6.43-7.36-6.31-11.41Z"/>
            <path class="cls-7" d="m2942.14,5606.46c.59-4.01,3.37-7.69,8.17-10.08,9.58-4.7,23.66-2.74,31.55,4.47,73.79,68.89,151.48,135.27,233.1,199.86,8.7,6.94,8.01,16.94-1.67,22.35-9.67,5.4-24.66,4.15-33.36-2.79-81.63-64.52-159.11-132.67-232.87-201.7-3.93-3.73-5.52-8.08-4.92-12.09Z"/>
            <path class="cls-7" d="m4499.89,5497.34c-1.31-3.84-.53-8.39,2.63-12.75,6.31-8.71,19.74-13.31,30.14-10.33l34.89,9.76,34.88,8.41,71.05,16.3c10.78,2.39,14.64,11.65,8.47,20.75-6.16,9.1-20.04,14.59-30.82,12.19l-71.07-16.34-70.27-19.55c-5.2-1.49-8.6-4.61-9.91-8.45Z"/>
            <path class="cls-7" d="m3276.86,5641.51c.25-4.05,2.7-7.97,7.28-10.8,9.16-5.66,23.33-4.84,31.8,1.86,44.12,34.78,89.5,68.08,136.08,101.4,8.94,6.22,8.86,16.25-.32,22.41-9.18,6.3-23.95,5.81-32.88-.69-46.57-33.64-91.93-67.23-136.03-102.61-4.23-3.35-6.19-7.53-5.94-11.57Z"/>
            <path class="cls-7" d="m4008.7,5611.25c-.61-4.01.95-8.37,4.81-12.15l49.19-48.66,24.04-24.24,23.44-25.24c7.2-7.8,20.7-10.57,30.32-6.22,9.62,4.35,11.71,14.16,4.52,21.95l-47.26,50.55c-16.09,16.46-32.53,32.48-49.16,48.8-7.72,7.55-21.95,9.89-31.63,5.21-4.85-2.34-7.64-5.99-8.25-10Z"/>
          </g>
        </g>
        <g>
          <g>
            <path class="cls-45" d="m2626,4781.48l-858.3,16.63-858.3-16.63s-33.22,618.77,232.9,1054.57c45.42,94.32,280,222.16,625.4,222.16s555.56-132.34,625.4-222.16c266.11-435.8,232.9-1054.57,232.9-1054.57Z"/>
            <path class="cls-44" d="m2719.56,4593.83l-951.86,18.45-951.86-18.45s-36.84,686.22,258.28,1169.53c50.38,104.6,310.52,246.38,693.57,246.38s616.12-146.76,693.57-246.38c295.12-483.31,258.29-1169.53,258.29-1169.53Z"/>
            <ellipse class="cls-39" cx="1767.7" cy="4593.83" rx="951.86" ry="383.69"/>
            <ellipse class="cls-1" cx="1767.7" cy="4593.83" rx="790.31" ry="318.58"/>
            <path class="cls-24" d="m1767.7,4341.66c-408.66,0-744.83,125.03-786.03,285.37,41.2,160.34,377.38,285.37,786.03,285.37s744.83-125.03,786.03-285.37c-41.2-160.34-377.38-285.37-786.03-285.37Z"/>
            <path class="cls-54" d="m1057.69,5023.54s-107.21-184.18-330.82-140.43c-223.61,43.75-238.46,241.99-210.79,366.5,38.47,173.14,337.18,724.87,653.15,473.28,0,0,7.29-86.31-41.32-100.9,0,0-177.43,140.85-323.27-98.5-145.83-239.35-209.03-368.17-99.65-465.39,72.8-64.71,197.8,15.53,273.26,76.44,45.07,36.37,111.44-5.87,97.23-62.01-3.7-14.63-9.45-30.91-17.8-48.99Z"/>
            <path class="cls-20" d="m1767.7,4341.66c-238.72,0-452.59,42.71-597.49,110.16,11.76,229.02,406,415.43,906.86,435.16,258.58-44.41,446.53-142.7,476.65-259.95-41.2-160.34-377.37-285.37-786.03-285.37Z"/>
            <ellipse class="cls-24" cx="2244.65" cy="4505.29" rx="101.47" ry="38.65"/>
            <path class="cls-24" d="m2208.14,4600.32c0,8.92-18.99,16.16-42.41,16.16s-42.41-7.23-42.41-16.16,18.99-16.16,42.41-16.16,42.41,7.23,42.41,16.16Z"/>
            <path class="cls-24" d="m2115.84,4534.29c0,9.84-20.93,17.81-46.75,17.81s-46.75-7.97-46.75-17.81,20.93-17.81,46.75-17.81,46.75,7.97,46.75,17.81Z"/>
            <path class="cls-24" d="m2341.33,4589.05c0,9.84-20.93,17.81-46.75,17.81s-46.75-7.97-46.75-17.81,20.93-17.81,46.75-17.81,46.75,7.97,46.75,17.81Z"/>
          </g>
          <g>
            <path class="cls-59" d="m1473.27,4440.09c-26.69,0-48.32-21.63-48.32-48.32,0-28.72-16.61-43.64-57.4-73.28-41.03-29.82-97.22-70.66-97.22-151.46s56.19-121.63,97.22-151.46c40.79-29.64,57.4-44.57,57.4-73.29s-16.61-43.58-57.39-73.2c-41.03-29.8-97.23-70.62-97.23-151.39s56.2-121.61,97.22-151.41c40.79-29.63,57.4-44.55,57.4-73.24,0-26.69,21.63-48.32,48.32-48.32s48.32,21.63,48.32,48.32c0,80.79-56.2,121.61-97.23,151.42-40.78,29.63-57.39,44.54-57.39,73.23s16.61,43.58,57.39,73.19c41.03,29.8,97.23,70.62,97.23,151.39s-56.19,121.64-97.22,151.47c-40.79,29.64-57.4,44.56-57.4,73.28s16.61,43.64,57.4,73.28c41.03,29.82,97.22,70.66,97.22,151.46,0,26.69-21.63,48.32-48.32,48.32Z"/>
            <path class="cls-59" d="m1801.83,4440.09c-26.69,0-48.32-21.63-48.32-48.32,0-28.72-16.61-43.64-57.4-73.28-41.03-29.82-97.22-70.66-97.22-151.46s56.19-121.63,97.22-151.46c40.79-29.64,57.4-44.57,57.4-73.29s-16.61-43.58-57.39-73.2c-41.03-29.8-97.23-70.62-97.23-151.39s56.2-121.61,97.22-151.41c40.79-29.63,57.4-44.55,57.4-73.24,0-26.69,21.63-48.32,48.32-48.32s48.32,21.63,48.32,48.32c0,80.79-56.2,121.61-97.23,151.42-40.78,29.63-57.39,44.54-57.39,73.23s16.61,43.58,57.39,73.19c41.03,29.8,97.23,70.62,97.23,151.39s-56.19,121.64-97.22,151.47c-40.79,29.64-57.4,44.56-57.4,73.28s16.61,43.64,57.4,73.28c41.03,29.82,97.22,70.66,97.22,151.46,0,26.69-21.63,48.32-48.32,48.32Z"/>
            <path class="cls-59" d="m2120.73,4440.09c-26.69,0-48.32-21.63-48.32-48.32,0-28.72-16.61-43.64-57.4-73.28-41.03-29.82-97.22-70.66-97.22-151.46s56.19-121.63,97.22-151.46c40.79-29.64,57.4-44.57,57.4-73.29s-16.61-43.58-57.39-73.2c-41.03-29.8-97.23-70.62-97.23-151.39s56.2-121.61,97.22-151.41c40.79-29.63,57.4-44.55,57.4-73.24,0-26.69,21.63-48.32,48.32-48.32s48.32,21.63,48.32,48.32c0,80.79-56.2,121.61-97.23,151.42-40.78,29.63-57.39,44.54-57.39,73.23s16.61,43.58,57.39,73.19c41.03,29.8,97.23,70.62,97.23,151.39s-56.19,121.64-97.22,151.47c-40.79,29.64-57.4,44.56-57.4,73.28s16.61,43.64,57.4,73.28c41.03,29.82,97.22,70.66,97.22,151.46,0,26.69-21.63,48.32-48.32,48.32Z"/>
          </g>
        </g>
        <g>
          <g class="cls-21">
            <polygon class="cls-8" points="2243.31 901.03 2243.17 849.56 2429.74 741.84 2429.89 793.31 2243.31 901.03"/>
            <polygon class="cls-40" points="2243.31 901.03 2188.83 869.37 2188.68 817.89 2243.17 849.56 2243.31 901.03"/>
            <polygon class="cls-46" points="2243.17 849.56 2188.68 817.89 2375.26 710.18 2429.74 741.84 2243.17 849.56"/>
          </g>
          <g class="cls-21">
            <polygon class="cls-8" points="2242.96 775.97 2429.54 668.25 2429.68 720 2243.1 827.72 2242.96 775.97"/>
            <polygon class="cls-46" points="2242.96 775.97 2188.47 744.3 2375.05 636.58 2429.54 668.25 2242.96 775.97"/>
            <polygon class="cls-40" points="2243.1 827.72 2188.62 796.06 2188.47 744.3 2242.96 775.97 2243.1 827.72"/>
          </g>
          <g class="cls-21">
            <polygon class="cls-41" points="2047.59 1051.24 1993.1 1019.58 2134.88 937.72 2189.37 969.39 2047.59 1051.24"/>
            <polygon class="cls-41" points="2047.1 878.12 1992.61 846.45 2134.39 764.59 2188.88 796.26 2047.1 878.12"/>
            <polygon class="cls-43" points="2188.39 623.13 2188.54 674.6 2046.75 756.46 2047.1 878.12 2188.88 796.26 2189.03 847.73 2047.24 929.59 2047.59 1051.24 2189.37 969.39 2189.52 1021 2002.94 1128.72 2001.81 730.85 2188.39 623.13"/>
            <polygon class="cls-12" points="2002.94 1128.72 1948.45 1097.05 1947.33 699.18 2001.81 730.85 2002.94 1128.72"/>
            <polygon class="cls-41" points="2001.81 730.85 1947.33 699.18 2133.9 591.46 2188.39 623.13 2001.81 730.85"/>
          </g>
          <g class="cls-21">
            <polygon class="cls-52" points="3232.87 303.8 3068.38 398.76 3122.87 430.43 3287.36 335.46 3232.87 303.8"/>
            <path class="cls-11" d="m3240.34,148.76c.58-4.47.86-8.86.85-13.17-.06-19.72-6.11-33.22-18.15-40.21l-54.49-31.66c12.04,7,18.09,20.49,18.15,40.21.01,4.79-.39,9.69-1.11,14.68-.1.72-.26,1.45-.37,2.18-.76,4.66-1.78,9.39-3.18,14.24-.11.38-.24.77-.35,1.15-1.52,5.09-3.38,10.28-5.6,15.58-.13.31-.25.62-.38.93-2.39,5.62-5.16,11.36-8.35,17.23-5.5,10.13-11.48,20.22-17.61,30.32-1.89,3.12-3.77,6.25-5.73,9.37-6.71,10.7-13.64,21.4-21.08,32.11-16.49,23.72-36.56,52.5-59.95,86.17-1.16,1.68-2.31,3.4-3.44,5.17-1.27,1.99-2.51,4.02-3.73,6.12-.31.54-.61,1.11-.92,1.65-.27.47-.53.95-.8,1.43-.66,1.18-1.33,2.33-1.97,3.55-1.27,2.4-2.52,4.86-3.74,7.39-.37.78-.73,1.61-1.09,2.4-.34.72-.66,1.45-.99,2.18-.59,1.29-1.2,2.55-1.77,3.87-1.42,3.27-2.79,6.63-4.11,10.08-.12.3-.22.63-.33.93-.32.84-.61,1.73-.92,2.58-1.09,2.95-2.19,5.89-3.21,8.97-.45,1.33-.83,2.8-1.27,4.16-.76,2.4-1.5,4.85-2.23,7.33-.53,1.79-1.1,3.46-1.61,5.29-.4,1.43-.71,3.05-1.1,4.5-1.27,4.78-2.46,9.73-3.61,14.78-.42,1.86-.92,3.54-1.33,5.44-.26,1.22-.47,2.55-.72,3.79-.7,3.43-1.35,6.98-2,10.53-.72,3.93-1.43,7.87-2.09,11.95-.59,3.68-1.14,7.48-1.68,11.28-.36,2.57-.79,4.99-1.13,7.61-.42,3.26-.83,6.56-1.21,9.89l54.49,31.67c.69-6.03,1.53-11.77,2.35-17.54.54-3.78,1.08-7.55,1.67-11.22.66-4.11,1.38-8.1,2.11-12.06.64-3.5,1.29-7.01,1.98-10.4.65-3.19,1.37-6.24,2.07-9.32,1.14-5.03,2.33-9.95,3.59-14.71.88-3.33,1.78-6.62,2.72-9.82.72-2.47,1.46-4.91,2.22-7.3,1.44-4.5,2.92-8.91,4.48-13.14.32-.85.61-1.75.93-2.59,1.97-5.19,4.05-10.13,6.22-14.89.33-.72.65-1.44.98-2.15,2.18-4.66,4.45-9.12,6.83-13.36.26-.46.51-.93.77-1.39,2.59-4.55,5.29-8.89,8.1-12.95,23.39-33.67,43.45-62.44,59.95-86.17,6.07-8.74,11.88-17.46,17.46-26.19,1.26-1.97,2.37-3.93,3.6-5.9,1.97-3.14,3.85-6.28,5.76-9.43,2.25-3.7,4.63-7.41,6.79-11.11,3.72-6.38,7.32-12.77,10.8-19.17.32-.59.64-1.18.95-1.77,1.33-2.51,2.59-4.99,3.78-7.45,1.13-2.33,2.18-4.64,3.18-6.93.16-.36.29-.72.44-1.08.13-.31.25-.62.38-.93.65-1.55,1.31-3.11,1.9-4.64.85-2.22,1.64-4.42,2.37-6.6.49-1.47.9-2.91,1.33-4.36.11-.37.24-.75.34-1.13.13-.44.29-.89.41-1.33.7-2.51,1.31-4.99,1.83-7.45.4-1.85.65-3.66.94-5.48.12-.72.27-1.44.37-2.15.07-.5.2-1.02.26-1.52Z"/>
            <path class="cls-39" d="m3177.65,47c30.23-17.45,55.81-20.01,77.1-7.87,21.17,12.21,31.87,35.57,31.97,70.17.1,34.17-10.06,69.86-30.47,107.07-13.03,23.57-28.04,47.72-45.28,72.58-17.23,24.86-36.31,52.35-57.24,82.76-18.47,26.43-28.79,46.02-30.86,58.72l164.49-94.97.15,51.61-217.06,125.32c7.84-68.01,23.52-118.96,47.03-152.84,23.39-33.67,43.45-62.44,59.95-86.17,16.62-23.94,31.38-47.8,44.42-71.8,13.03-24,19.4-45.85,19.34-65.99-.06-19.99-6.27-33.59-18.65-40.5-12.38-6.91-27.21-5.45-44.73,4.66-17.15,9.9-31.94,25.54-44.24,46.7-10.58,18.18-17.06,42.94-19.57,74.07l-44.84,7.14c4.47-37.09,15.25-70.3,31.98-99.56,21.16-36.93,46.66-63.87,76.53-81.11Z"/>
            <path class="cls-52" d="m3134.57,82.05c1.02-1.1,2.04-2.21,3.07-3.28,4.34-4.51,8.91-8.52,13.5-12.47,2.08-1.78,4.07-3.75,6.2-5.42,6.54-5.13,13.28-9.83,20.3-13.88,5.13-2.96,10.07-5.33,14.93-7.43,1.32-.57,2.63-1.13,3.93-1.64,2.59-1.01,5.13-1.86,7.64-2.63,1.42-.43,2.86-.92,4.26-1.27,1.33-.33,2.63-.58,3.93-.84,1.95-.39,3.88-.75,5.78-.98.98-.12,1.95-.21,2.91-.29,2.25-.18,4.46-.25,6.64-.2.58.01,1.18-.01,1.75.02,2.7.14,5.34.47,7.93.97.61.12,1.2.28,1.8.42,2.08.47,4.13,1.07,6.15,1.78.65.23,1.31.44,1.96.69,2.55,1,5.06,2.15,7.49,3.53l-54.49-31.66c-.16-.09-.31-.18-.47-.27-1.93-1.08-3.89-2.03-5.89-2.87-.37-.16-.76-.25-1.13-.4-.65-.25-1.31-.46-1.96-.69-.97-.34-1.91-.74-2.89-1.02-1.06-.31-2.16-.5-3.23-.75-.61-.14-1.21-.3-1.83-.42-.33-.06-.64-.17-.97-.23-2.05-.36-4.13-.6-6.25-.74-.23-.01-.47,0-.69,0-.58-.03-1.17,0-1.75-.02-1.4-.03-2.8-.1-4.24-.04-.79.03-1.61.17-2.41.24-.96.08-1.93.17-2.91.29-.73.09-1.44.1-2.18.21-1.18.18-2.4.53-3.6.77-1.31.26-2.61.5-3.94.84-.5.12-.98.18-1.48.31-.91.25-1.87.68-2.79.96-2.5.76-5.03,1.61-7.61,2.62-.71.28-1.38.42-2.09.72-.6.25-1.26.67-1.87.93-4.86,2.1-9.79,4.47-14.91,7.43-7.02,4.06-13.76,8.75-20.31,13.88-2.13,1.67-4.13,3.64-6.21,5.43-3.36,2.89-6.82,5.59-10.05,8.78-1.18,1.16-2.28,2.47-3.44,3.67-1.04,1.08-2.06,2.19-3.09,3.3-1.44,1.56-2.93,3.01-4.34,4.63-2.78,3.2-5.51,6.52-8.18,9.97l.29.17h0l-.29-.17c-1.18,1.51-2.31,3.13-3.46,4.69-.45.61-.91,1.22-1.36,1.84-.73,1.01-1.49,1.97-2.22,3.01-2.2,3.13-4.35,6.35-6.47,9.67-2.11,3.29-4.17,6.68-6.2,10.15-.4.69-.81,1.38-1.2,2.08-1.22,2.13-2.4,4.28-3.56,6.45-1.48,2.79-2.91,5.61-4.29,8.47-1.15,2.38-2.23,4.8-3.31,7.22-.13.29-.26.56-.39.85-.12.28-.26.55-.38.83-1.38,3.18-2.69,6.39-3.95,9.65-1.37,3.56-2.67,7.18-3.89,10.84-.19.58-.35,1.18-.54,1.76-.24.74-.45,1.5-.69,2.25-.91,2.88-1.84,5.75-2.65,8.69-1.32,4.75-2.48,9.6-3.56,14.49-.09.41-.21.81-.3,1.23-.03.14-.07.28-.1.43-1.64,7.69-2.99,15.58-4.03,23.64-.12.91-.23,1.83-.34,2.75l54.49,31.66c1.1-9.18,2.61-18.11,4.48-26.81.09-.42.21-.82.3-1.23,1.74-7.92,3.83-15.63,6.2-23.16.24-.76.45-1.53.7-2.28,2.58-7.91,5.48-15.62,8.75-23.08.12-.28.25-.55.38-.82,3.37-7.62,7.08-15.02,11.16-22.16,5.1-8.9,10.48-17.16,16.09-24.91.45-.62.91-1.23,1.36-1.84,5.12-6.93,10.47-13.32,16-19.31Z"/>
          </g>
          <g class="cls-21">
            <polygon class="cls-50" points="2972.72 480.9 2918.23 449.24 2963.07 441.81 3017.56 473.48 2972.72 480.9"/>
            <path class="cls-16" d="m2966.31,493.4c.36-.7.82-1.59,1.21-2.35,1.53-2.97,3.2-6.24,5.2-10.14l-54.49-31.66c-2.12,4.14-3.86,7.55-5.45,10.64-.3.59-.62,1.2-.9,1.75-1.51,2.93-2.72,5.26-3.69,7.09-.52.99-1.03,1.94-1.39,2.6-3.63,6.25-7.45,12.04-11.43,17.49-.33.46-.67.91-1,1.36-3.63,4.88-7.44,9.37-11.36,13.59-.72.78-1.44,1.56-2.17,2.31-3.07,3.17-6.31,5.98-9.56,8.76-1.5,1.29-2.94,2.71-4.48,3.91-4.69,3.67-9.54,7.02-14.59,9.94-4.9,2.83-9.59,4.96-14.16,6.68-.86.33-1.71.6-2.57.88-4.23,1.41-8.35,2.44-12.29,2.88-.35.04-.69.07-1.04.1-4.27.39-8.39.23-12.34-.54-.19-.04-.37-.09-.56-.13-4.05-.85-7.95-2.26-11.65-4.34l54.49,31.67c.06.03.11.06.16.09,1.37.76,2.76,1.43,4.17,2.03,1.42.59,2.86,1.1,4.33,1.53.98.28,1.99.48,2.99.69.19.04.37.09.56.13.27.05.53.14.8.19,1.47.25,2.97.43,4.49.53,1.57.1,3.17.11,4.79.04.74-.03,1.5-.16,2.25-.22.35-.03.7-.06,1.05-.1.69-.08,1.36-.1,2.05-.21,2.1-.32,4.23-.77,6.41-1.36,1.24-.34,2.55-.89,3.81-1.31.86-.29,1.72-.56,2.59-.89.82-.31,1.6-.49,2.42-.83,3.8-1.57,7.71-3.52,11.73-5.84,5.06-2.92,9.9-6.28,14.6-9.95,1.53-1.2,2.96-2.62,4.46-3.89,2.5-2.14,5.06-4.15,7.46-6.52.72-.72,1.4-1.52,2.12-2.26.73-.75,1.45-1.54,2.17-2.31,1.17-1.26,2.37-2.43,3.51-3.75,2-2.3,3.96-4.69,5.88-7.16.67-.86,1.31-1.78,1.96-2.66.34-.46.69-.93,1.03-1.4.68-.94,1.38-1.83,2.06-2.79,1.58-2.25,3.13-4.57,4.65-6.95,1.52-2.38,3.01-4.82,4.47-7.33.08-.13.15-.26.23-.39.31-.56.68-1.24,1.1-2.03.07-.14.21-.41.29-.56.95-1.8,2.17-4.14,3.64-7Z"/>
            <g class="cls-21">
              <g class="cls-47">
                <g class="cls-21">
                  <path class="cls-15" d="m2972.45,386.47l-54.49-31.66c-5.82-4.88-9.66-7.77-11.64-9.04l54.49,31.66c1.98,1.27,5.82,4.17,11.64,9.04"/>
                </g>
              </g>
            </g>
            <path class="cls-50" d="m2935.75,316.98c1.62-.49,3.26-1.04,4.86-1.44,1.53-.39,3.04-.67,4.54-.97,2.18-.43,4.36-.83,6.49-1.09,1.12-.14,2.24-.25,3.34-.33,2.55-.2,5.06-.28,7.53-.22.66.01,1.34-.02,1.99.02,3.06.16,6.06.54,9.01,1.1.69.13,1.38.32,2.06.48,2.36.54,4.69,1.21,6.97,2.01.74.26,1.49.5,2.22.78,2.89,1.14,5.74,2.43,8.5,4.01.06.03.12.07.19.11l-54.48-31.66c-.06-.04-.13-.07-.19-.11-.09-.05-.19-.11-.28-.16-2.26-1.27-4.56-2.4-6.91-3.38-.42-.18-.87-.29-1.29-.46-.74-.29-1.5-.53-2.25-.8-1.09-.38-2.15-.83-3.25-1.15-1.21-.35-2.46-.57-3.7-.85-.69-.16-1.37-.34-2.07-.48-.37-.07-.73-.19-1.11-.25-2.34-.41-4.72-.69-7.13-.84-.25-.02-.52,0-.77,0-.66-.03-1.33,0-2-.02-1.61-.04-3.21-.12-4.86-.04-.87.04-1.77.19-2.65.26-1.11.09-2.23.2-3.36.33-.85.1-1.67.12-2.53.25-1.29.2-2.64.58-3.95.84-1.51.3-3.01.58-4.54.97-.59.15-1.16.21-1.76.37-1.01.28-2.09.76-3.11,1.07-2.83.86-5.68,1.82-8.59,2.96-.82.32-1.59.49-2.41.83-.67.28-1.4.74-2.07,1.03-5.43,2.35-10.94,4.99-16.64,8.28-7.99,4.62-15.66,9.96-23.11,15.8-2.43,1.91-4.71,4.16-7.09,6.2-3.85,3.31-7.81,6.41-11.51,10.06-1.29,1.27-2.5,2.71-3.77,4.02-1.2,1.24-2.38,2.52-3.56,3.8-1.71,1.85-3.49,3.58-5.17,5.51-3.21,3.69-6.36,7.53-9.44,11.51-1.18,1.53-2.32,3.16-3.48,4.72-.55.74-1.1,1.49-1.65,2.24-1,1.37-2.02,2.67-3,4.07-2.55,3.63-5.04,7.36-7.5,11.2-2.37,3.72-4.7,7.53-6.99,11.44-.25.42-.49.84-.74,1.27-1.98,3.43-3.88,6.85-5.69,10.26-.6,1.13-1.13,2.25-1.71,3.38-.67,1.29-1.32,2.58-1.96,3.87-.62,1.24-1.29,2.49-1.89,3.73-1.34,2.78-2.58,5.55-3.81,8.31-.26.59-.55,1.18-.81,1.76-.08.19-.17.37-.25.56-1.53,3.54-2.98,7.06-4.33,10.58-.3.78-.54,1.55-.83,2.33-.47,1.25-.9,2.49-1.34,3.73-.57,1.61-1.2,3.23-1.74,4.84-.6,1.78-1.08,3.56-1.63,5.34-.43,1.41-.89,2.82-1.29,4.22-.2.7-.45,1.41-.65,2.11-.71,2.57-1.27,5.11-1.89,7.67-.37,1.54-.8,3.1-1.14,4.64-.07.31-.17.63-.23.94-.3,1.39-.45,2.77-.71,4.16-.72,3.7-1.39,7.39-1.9,11.07-.08.58-.22,1.16-.3,1.74-.1.75-.05,1.49-.14,2.24-.93,7.9-1.52,15.77-1.5,23.57.11,39.13,12.18,65.69,36.32,79.44l54.49,31.66c-24.14-13.76-36.21-40.31-36.32-79.44-.02-7.81.57-15.68,1.5-23.59.15-1.32.25-2.63.44-3.94.51-3.69,1.19-7.4,1.91-11.12.33-1.69.57-3.38.94-5.08.33-1.53.76-3.07,1.13-4.61.79-3.27,1.6-6.54,2.54-9.83.4-1.38.84-2.77,1.27-4.16,1.05-3.4,2.17-6.81,3.39-10.23.44-1.24.87-2.47,1.33-3.71,1.67-4.48,3.46-8.97,5.43-13.47.25-.57.53-1.15.79-1.73,1.78-4,3.69-8.02,5.7-12.05.65-1.31,1.31-2.61,1.99-3.92,2.34-4.52,4.76-9.06,7.39-13.61,5.78-9.98,11.88-19.25,18.22-27.97.55-.76,1.11-1.51,1.66-2.25,5.79-7.79,11.84-14.98,18.09-21.74,1.18-1.28,2.36-2.56,3.56-3.8,4.91-5.09,10.08-9.62,15.27-14.08,2.37-2.04,4.65-4.29,7.09-6.2,7.44-5.84,15.11-11.18,23.11-15.8,5.7-3.29,11.21-5.93,16.63-8.28,1.51-.65,3-1.28,4.49-1.86,2.91-1.14,5.77-2.1,8.6-2.96Z"/>
            <path class="cls-22" d="m2906.04,330.08c33.93-19.59,63.1-22.51,87.24-8.75,4.95,2.82,12.88,9.6,23.91,20.28l-44.74,44.86c-5.82-4.88-9.66-7.77-11.64-9.04-15.1-8.47-33.27-6.64-54.61,5.68-21.22,12.25-39.34,31.38-54.47,57.44-15.01,25.99-22.47,51.32-22.4,75.85.07,24.39,7.66,40.89,22.76,49.49,15.23,8.54,33.39,6.71,54.61-5.54,21.35-12.33,39.46-31.31,54.59-57.37,1.84-3.34,5.66-10.79,11.43-22.08l44.85-7.43c-10.93,23.78-18.8,39.83-23.72,48.35-23.98,41.54-53.07,72.25-87,91.84-33.93,19.59-62.97,22.44-87.24,8.75-24.14-13.76-36.21-40.31-36.32-79.44-.11-39.13,11.76-79.51,35.75-121.05,24.11-41.61,53.07-72.25,87-91.84Z"/>
          </g>
          <g class="cls-21">
            <path class="cls-48" d="m2685.93,554.17c-.04-13.89-2.76-22.41-8.16-25.54l-54.49-31.67h0s0,0,0,0c2.7,1.57,4.73,4.48,6.09,8.74,1.36,4.26,2.05,9.86,2.07,16.8l.51,179.94,54.49,31.66-.51-179.94Z"/>
            <path class="cls-51" d="m2632.63,519.59c.11-.23.21-.47.32-.7,1.57-3.43,3.31-6.76,5.23-9.98.11-.18.22-.35.32-.53,1.91-3.17,3.99-6.24,6.23-9.21.15-.2.29-.4.44-.6,2.05-2.68,4.29-5.25,6.62-7.77.69-.75,1.4-1.51,2.11-2.25,1.21-1.24,2.53-2.41,3.81-3.62,2.72-2.57,5.61-5.04,8.65-7.43,1.2-.94,2.38-1.9,3.63-2.81,4.24-3.1,8.66-6.09,13.46-8.86,3.46-2,6.71-3.58,9.79-4.83.4-.16.76-.25,1.15-.4,2.75-1.04,5.37-1.84,7.8-2.27.12-.02.25-.06.38-.08,2.66-.43,5.13-.49,7.42-.18.09.01.19.02.28.03,2.32.34,4.45,1.06,6.38,2.18l-54.49-31.67c-.06-.04-.13-.08-.2-.11-.58-.33-1.18-.62-1.8-.88-.62-.26-1.25-.48-1.9-.67-.65-.19-1.32-.34-2.01-.46-.16-.03-.32-.03-.48-.06-.09-.01-.19-.02-.28-.03-.5-.07-.99-.14-1.51-.18-.84-.05-1.7-.06-2.58-.02-1,.05-2.02.15-3.08.32-.08.01-.17.04-.26.06-.12.02-.24.06-.36.08-1.11.19-2.22.42-3.39.74-1.42.39-2.93.97-4.44,1.54-.38.15-.74.23-1.13.39-.16.06-.3.09-.46.16-2.94,1.22-6.05,2.78-9.34,4.67-4.8,2.77-9.23,5.76-13.46,8.86-1.25.91-2.42,1.87-3.62,2.81-3.04,2.39-5.93,4.87-8.66,7.44-.67.63-1.47,1.18-2.12,1.82-.59.58-1.1,1.19-1.67,1.78-.72.74-1.43,1.5-2.13,2.26-.72.78-1.49,1.53-2.19,2.33-1.38,1.58-2.71,3.2-3.98,4.84-.15.19-.28.39-.43.58-.16.21-.31.43-.47.64-.73.98-1.47,1.95-2.17,2.94-.88,1.26-1.74,2.53-2.56,3.82-.51.8-.99,1.61-1.48,2.42-.11.18-.22.35-.32.53-.14.24-.3.48-.44.73-.7,1.21-1.39,2.43-2.04,3.66-.66,1.23-1.29,2.48-1.9,3.74-.3.61-.56,1.24-.85,1.86-.11.23-.21.46-.32.69-.21.46-.43.91-.63,1.37-.6,1.39-1.18,2.8-1.73,4.23-.6,1.56-1.16,3.13-1.69,4.73-.04.13-.08.27-.12.4-.06.18-.11.36-.16.54-.49,1.52-.97,3.05-1.4,4.6-.63,2.26-1.19,4.55-1.69,6.88,0,0,0,.01,0,.01l54.49,31.67c.84-3.94,1.89-7.77,3.09-11.5.06-.18.11-.37.17-.55,1.21-3.67,2.6-7.24,4.17-10.72Z"/>
            <path class="cls-48" d="m2587.7,610.88c-.04-13.83-2.77-22.31-8.18-25.45l-54.49-31.66c5.41,3.14,8.14,11.62,8.18,25.45l.26,180.08,54.49,31.66-.26-180.08Z"/>
            <path class="cls-51" d="m2600.71,516.55c.15-.03.31-.08.46-.1,2.38-.4,4.59-.47,6.63-.2.09.01.18.02.27.03,2.08.3,3.98.93,5.69,1.92l-.08-.04s.05.03.08.04l-54.49-31.66c-.05-.03-.11-.06-.16-.09-.51-.29-1.04-.55-1.58-.78-.54-.22-1.09-.42-1.65-.58-.58-.17-1.18-.31-1.79-.41-.16-.03-.34-.03-.5-.06-.09-.01-.18-.02-.27-.03-.41-.05-.8-.12-1.22-.14-.74-.05-1.5-.05-2.28-.01-.89.04-1.81.13-2.76.28-.12.02-.25.06-.36.08-.15.03-.32.07-.47.1-.9.17-1.81.34-2.76.59-1.35.37-2.79.92-4.24,1.47-.34.13-.66.21-1.01.35-.13.05-.25.08-.38.13-2.69,1.12-5.55,2.55-8.58,4.3-5.49,3.17-10.44,6.87-15.13,10.82-1.06.89-2.13,1.79-3.15,2.73-.93.85-1.97,1.6-2.87,2.48-1.82,1.79-3.56,3.65-5.24,5.58-1.24,1.43-2.44,2.89-3.61,4.39-.28.36-.54.73-.81,1.1-.11.14-.21.29-.32.43-.61.81-1.22,1.61-1.81,2.45-.87,1.24-1.71,2.5-2.53,3.78-.79,1.23-1.55,2.48-2.29,3.75-.73,1.26-1.45,2.54-2.14,3.84-.7,1.31-1.37,2.64-2.03,4,0,0,0,.02-.01.02v.02c-.71,1.44-1.38,2.91-2.02,4.4-.7,1.61-1.37,3.25-2.01,4.92-.72,1.86-1.4,3.76-2.04,5.7s-1.27,3.98-1.86,6.02l54.49,31.67c2.14-7.52,4.79-14.54,7.93-21.06h0c3.1-6.44,6.71-12.37,10.8-17.84.11-.14.21-.29.32-.43,3.74-4.95,7.98-9.4,12.53-13.55,1.02-.93,2.08-1.82,3.14-2.71,4.7-3.95,9.65-7.66,15.14-10.83,3.17-1.83,6.14-3.28,8.95-4.43.36-.14.68-.22,1.03-.36,2.46-.94,4.81-1.66,6.99-2.06Z"/>
            <polygon class="cls-48" points="2489.74 847.66 2435.26 816 2434.53 560.2 2489.02 591.87 2489.74 847.66"/>
            <polygon class="cls-51" points="2489.02 591.87 2434.53 560.2 2479.32 534.34 2533.81 566.01 2489.02 591.87"/>
            <path class="cls-49" d="m2683.45,465.83c31.47-18.17,47.32-5.31,47.45,38.65l.58,203.62-45.04,26-.51-179.94c-.07-25.24-8.99-32.73-26.76-22.47-7.28,4.2-13.69,10.89-18.98,19.9-5.29,9.02-7.95,30.72-7.85,64.75l.42,148.74-44.79,25.86-.26-180.08c-.07-25.24-9.12-32.66-27.01-22.33-7.28,4.2-13.69,10.89-18.98,19.9-4.67,7.81-7.23,22.92-7.66,45.33l.48,168.02-44.79,25.86-.73-255.8,44.79-25.86.07,23.82c8.57-30.09,25.19-52.18,49.87-66.43,24.56-14.18,38.29-7.76,41.46,18.95,6.95-32.56,26.41-58.14,58.25-76.52Z"/>
          </g>
        </g>
        <g>
          <g class="cls-21">
            <polygon class="cls-40" points="4273.1 1134.49 4195.45 1089.36 4269.85 865.67 4347.5 910.79 4273.1 1134.49"/>
            <polygon class="cls-40" points="4377.53 818.77 4299.89 773.65 4370.78 555.62 4448.43 600.74 4377.53 818.77"/>
            <polygon class="cls-46" points="4448.43 600.74 4370.78 555.62 4434.09 519.07 4511.73 564.2 4448.43 600.74"/>
            <polygon class="cls-8" points="4511.73 564.2 4332.89 1099.97 4273.1 1134.49 4347.5 910.79 4241.98 719.94 4305.64 683.18 4377.53 818.77 4448.43 600.74 4511.73 564.2"/>
            <polygon class="cls-40" points="4347.5 910.79 4269.85 865.67 4164.33 674.81 4241.98 719.94 4347.5 910.79"/>
            <polygon class="cls-46" points="4241.98 719.94 4164.33 674.81 4227.99 638.06 4305.64 683.18 4241.98 719.94"/>
          </g>
          <g class="cls-21">
            <polygon class="cls-48" points="4041.92 1103.41 3964.27 1058.29 3963.98 955.44 4041.63 1000.56 4041.92 1103.41"/>
            <polygon class="cls-51" points="4098.24 902.71 4020.6 857.58 4109.93 806.01 4187.57 851.13 4098.24 902.71"/>
            <polygon class="cls-48" points="3952.3 1052.14 3874.65 1007.01 3874.46 941.95 3952.11 987.07 3952.3 1052.14"/>
            <polygon class="cls-51" points="3952.11 987.07 3874.46 941.95 3963.8 890.37 4041.44 935.5 3952.11 987.07"/>
            <polygon class="cls-49" points="4097.95 800.06 4098.24 902.71 4187.57 851.13 4187.76 916.19 4098.43 967.77 4098.72 1070.62 4041.92 1103.41 4041.63 1000.56 3952.3 1052.14 3952.11 987.07 4041.44 935.5 4041.15 832.85 4097.95 800.06"/>
            <polygon class="cls-48" points="4041.44 935.5 3963.8 890.37 3963.51 787.72 4041.15 832.85 4041.44 935.5"/>
            <polygon class="cls-51" points="4041.15 832.85 3963.51 787.72 4020.3 754.93 4097.95 800.06 4041.15 832.85"/>
          </g>
          <g class="cls-21">
            <polygon class="cls-42" points="3832.64 1279.9 3754.99 1234.77 3699.82 1157.94 3777.47 1203.07 3832.64 1279.9"/>
            <polygon class="cls-16" points="3657.32 1381.12 3579.67 1336 3667.45 1109.64 3745.1 1154.76 3657.32 1381.12"/>
            <polygon class="cls-16" points="3777.09 1069.3 3699.44 1024.18 3740.01 919.8 3817.66 964.92 3777.09 1069.3"/>
            <polygon class="cls-50" points="3817.66 964.92 3740.01 919.8 3805.78 881.82 3883.42 926.95 3817.66 964.92"/>
            <polygon class="cls-22" points="3883.42 926.95 3809.46 1117.6 3898.06 1242.13 3832.64 1279.9 3777.47 1203.07 3723.09 1343.15 3657.32 1381.12 3745.1 1154.76 3670.47 1049.9 3735.89 1012.13 3777.09 1069.3 3817.66 964.92 3883.42 926.95"/>
            <polygon class="cls-42" points="3745.1 1154.76 3667.45 1109.64 3592.82 1004.77 3670.47 1049.9 3745.1 1154.76"/>
            <polygon class="cls-50" points="3670.47 1049.9 3592.82 1004.77 3658.24 967.01 3735.89 1012.13 3670.47 1049.9"/>
          </g>
        </g>
      </g>
    </g>
  </g>
</svg>