<svg width="24" height="18" viewBox="0 0 24 18" fill="none" xmlns="http://www.w3.org/2000/svg">
<path d="M9.008 12.0759C8.21468 11.2599 7.76901 10.1533 7.76901 8.99942C7.76901 7.84555 8.21468 6.73894 9.008 5.92299M14.992 5.92299C15.7853 6.73894 16.231 7.84555 16.231 8.99942C16.231 10.1533 15.7853 11.2599 14.992 12.0759M6.61508 14.5379C5.90791 13.8107 5.34696 12.9473 4.96425 11.9971C4.58153 11.0469 4.38455 10.0285 4.38455 9C4.38455 7.97151 4.58153 6.95309 4.96425 6.00289C5.34696 5.05269 5.90791 4.18932 6.61508 3.46207M17.3849 3.46207C18.0921 4.18932 18.653 5.05269 19.0358 6.00289C19.4185 6.95309 19.6155 7.97151 19.6155 9C19.6155 10.0285 19.4185 11.0469 19.0358 11.9971C18.653 12.9473 18.0921 13.8107 17.3849 14.5379M4.22215 16.9988C-0.0740515 12.5806 -0.0740515 5.41943 4.22215 1M19.7778 1C24.0741 5.41827 24.0741 12.5806 19.7778 17M12 9H12.009V9.00812H12V9ZM12.4231 9C12.4231 9.11539 12.3785 9.22606 12.2992 9.30766C12.2198 9.38926 12.1122 9.4351 12 9.4351C11.8878 9.4351 11.7802 9.38926 11.7008 9.30766C11.6215 9.22606 11.5769 9.11539 11.5769 9C11.5769 8.8846 11.6215 8.77394 11.7008 8.69234C11.7802 8.61074 11.8878 8.5649 12 8.5649C12.1122 8.5649 12.2198 8.61074 12.2992 8.69234C12.3785 8.77394 12.4231 8.8846 12.4231 9Z" stroke="white" stroke-width="2" stroke-linecap="round" stroke-linejoin="round"/>
</svg>
